/* XPM */
static char *_ae4d315407f47c696dce6c8e1210daagaClArTAtwQv94GY[] = {
/* columns rows colors chars-per-pixel */
"64 64 256 2 ",
"   c #170706",
".  c #1B1817",
"X  c #0C0A09",
"o  c #270804",
"O  c #370804",
"+  c #2B120E",
"@  c #39120A",
"#  c #231D1C",
"$  c #2C1C1A",
"%  c #291613",
"&  c #341A15",
"*  c #351D1A",
"=  c #3B1D1A",
"-  c #391713",
";  c #2A201D",
":  c #3C221E",
">  c #34221D",
",  c #231E20",
"<  c #2C2423",
"1  c #292726",
"2  c #332423",
"3  c #3B2423",
"4  c #3B2C2B",
"5  c #362B29",
"6  c #3A302E",
"7  c #3A3534",
"8  c #352E30",
"9  c #490903",
"0  c #570903",
"q  c #49150A",
"w  c #571509",
"e  c #461A16",
"r  c #581B16",
"t  c #680903",
"y  c #760901",
"u  c #671708",
"i  c #781706",
"p  c #681B14",
"a  c #771B13",
"s  c #4C231C",
"d  c #47241B",
"f  c #58251B",
"g  c #542A0A",
"h  c #6A2604",
"j  c #792707",
"k  c #692519",
"l  c #772619",
"z  c #71340F",
"x  c #432522",
"c  c #4C2522",
"v  c #442C2A",
"b  c #4B2C2A",
"n  c #482A26",
"m  c #5B2B24",
"M  c #572926",
"N  c #4A312C",
"B  c #57322C",
"V  c #443433",
"C  c #4C3533",
"Z  c #493C38",
"A  c #533C3B",
"S  c #573836",
"D  c #4A2F31",
"F  c #642A23",
"G  c #682A26",
"H  c #732C25",
"J  c #792B26",
"K  c #68332B",
"L  c #7B332D",
"P  c #75352A",
"I  c #673A36",
"U  c #783A36",
"Y  c #52413D",
"T  c #69423A",
"R  c #774539",
"E  c #7A4227",
"W  c #553F40",
"Q  c #584846",
"!  c #57504E",
"~  c #684946",
"^  c #784945",
"/  c #67514D",
"(  c #685855",
")  c #775955",
"_  c #77534E",
"`  c #75635C",
"'  c #786866",
"]  c #716F6B",
"[  c #880901",
"{  c #861706",
"}  c #991907",
"|  c #891B13",
" . c #96170E",
".. c #A31903",
"X. c #B01E00",
"o. c #882806",
"O. c #982807",
"+. c #893606",
"@. c #872718",
"#. c #982519",
"$. c #863417",
"%. c #973518",
"&. c #9D3408",
"*. c #A62806",
"=. c #B52809",
"-. c #A62717",
";. c #B42A17",
":. c #A73717",
">. c #B93619",
",. c #AF370B",
"<. c #882B24",
"1. c #982D23",
"2. c #87362A",
"3. c #963727",
"4. c #863B35",
"5. c #973B34",
"6. c #A62D22",
"7. c #A83628",
"8. c #B73929",
"9. c #A83C33",
"0. c #B63E33",
"q. c #C73818",
"w. c #C83413",
"e. c #C63D2A",
"r. c #D03924",
"t. c #924512",
"y. c #A94518",
"u. c #B94818",
"i. c #B35111",
"p. c #87453B",
"a. c #96443D",
"s. c #954B2E",
"d. c #A94626",
"f. c #B74628",
"g. c #A7463A",
"h. c #B94638",
"j. c #B75538",
"k. c #AE562B",
"l. c #B66733",
"z. c #BB650E",
"x. c #CB4B1A",
"c. c #C74828",
"v. c #DA4727",
"b. c #C25627",
"n. c #C84836",
"m. c #D64B38",
"M. c #C85339",
"N. c #D8563B",
"B. c #D95828",
"V. c #E85639",
"C. c #EA5332",
"Z. c #D16933",
"A. c #F7653A",
"S. c #EC6E36",
"D. c #CB621E",
"F. c #874844",
"G. c #974944",
"H. c #865249",
"J. c #99554C",
"K. c #885A56",
"L. c #985A58",
"P. c #834F51",
"I. c #AA4C43",
"U. c #AA5648",
"Y. c #B7574A",
"T. c #A55B57",
"R. c #B6574D",
"E. c #87635D",
"W. c #95655A",
"Q. c #A7635A",
"!. c #B76559",
"~. c #B46C4B",
"^. c #896866",
"/. c #966A67",
"(. c #887976",
"). c #987775",
"_. c #93726D",
"`. c #A76A65",
"'. c #BB6C65",
"]. c #A87874",
"[. c #B4746E",
"{. c #C75548",
"}. c #D75848",
"|. c #C6554A",
" X c #E65C47",
".X c #F35E43",
"XX c #C86658",
"oX c #D76857",
"OX c #D27351",
"+X c #E86846",
"@X c #F86849",
"#X c #E97848",
"$X c #F97748",
"%X c #E86956",
"&X c #F66D55",
"*X c #E97659",
"=X c #F97657",
"-X c #CF7469",
";X c #E87968",
":X c #F77A64",
">X c #E27D73",
",X c #D18832",
"<X c #EF8F3A",
"1X c #F7A13A",
"2X c #93827D",
"3X c #B0827C",
"4X c #D58B51",
"5X c #F88747",
"6X c #FD8759",
"7X c #FC9559",
"8X c #EB8F4E",
"9X c #FCA847",
"0X c #FDA55A",
"qX c #FDB65A",
"wX c #F3B04D",
"eX c #D58874",
"rX c #FB8667",
"tX c #FE9867",
"yX c #FD8B74",
"uX c #FC9776",
"iX c #EA906C",
"pX c #FCA867",
"aX c #FDB867",
"sX c #FFA976",
"dX c #FDB577",
"fX c #E8AB6D",
"gX c #D9AF65",
"hX c #FEC669",
"jX c #FED56B",
"kX c #FEC775",
"lX c #FEDA76",
"zX c #FFE57A",
"xX c #F7C35C",
"cX c #988985",
"vX c #95918D",
"bX c #A98A85",
"nX c #A69B97",
"mX c #B3928F",
"MX c #B0A9A7",
"NX c #A3A09B",
"BX c #CF9089",
"VX c #F69A88",
"CX c #FEA788",
"ZX c #F7AC91",
"AX c #F2B7A8",
"SX c #D9ACA4",
"DX c #FFDC87",
"FX c #FFD18D",
"GX c #FFEB86",
"HX c #FFE996",
"JX c #FFF492",
"KX c #FFCCAB",
"LX c #FFF8A7",
"PX c #FFF0B1",
"IX c #FFFFD1",
"UX c LightYellow",
/* pixels */
"#   . . < 4 < , 8 , , , , , W c K.S @ f P BXF.p.d.Z.wXqXjX0Xk.U.`.s.9 `.O x x = - : & d T f g s.k.hXqXxXzXLXUXUXGXwXD.j.f.XXp.f ",
"6 7 . . vXD 2 4 , . < 8 < + I P.q o q L L 0 z w %.8X0XqXqXj t.H p.q R O + + = + > = = @ s g q h 4XqXjXjXzXLXUXIXzXwXD.y.f.j.w R ",
"` ; . ; nXc ~ - 2 $ 2 W 3 = c M f E '.k.k.&.Z.uXdXpX4XOXy.s.@.3.2.9 O e * * : : : & s s s d g h qXwXwXjXLXLXIXIXjXwXl.y.h.iXf _ ",
"( > % & I M 9 I c v x S S c r 9 P 0 j u.S.7Xo.o.4X0 0 w 0 t -X9 9 q @ > $ + 2 $ : 3 d s d d w 4XjXwXwXhXJXLXLXLXjXwXz.:.j.4Xz F ",
"T Y = M r G F.J F r q P.G 9 J G t f.{ x.Z.x.:.$.w q q q @ O O O e q c = v $ $ $ % % + & > : g HXjX,XjXjXJXJXHX,XlX1Xi.,.b.k.s.k ",
") ) M U 0 0 J w p T.r J 4.0 a y -.f.N.Z.*.i U.9 O o o @   o   o o b C + 4 V . 2 + MX% $ g g HXJX1X1XjXzXzXGXGXz.lX<Xi.i.D.pXs.0 ",
"_.B Q.G.t J p !.<.t u J -X| | 0.N.6XrX:.t 9 O o + + & & & & d & b C A D C W V $ o Y * o g kXLXlXt.<XlXzXzXzX8XD.zX,Xi.x.<XaXs.w ",
"T T G J a 5.G.t R.5.| 1.{.8.-.-.{ { y { yXXX9 e d n > 3 : > 3 C / c b 3 Z * V V n c T g gXjXlX,Xz.1XjXzXzXxXD.8XlX,Xz.S.9XaX~.z ",
"M U 0 <.<.u p p w 4.1.6. .n.8.m.y t #.#.rX-.;XeX9 e D x - * * x D @ D A N 3 Z S c k k ~.aXZ.4Xh t.,XhXGXaX8X#X5XjXjXz.1X9X9XZ.u ",
"U U R.#.<.a w r e 9 @.OX{ m. XrX7.y y O.+XM.*Xa w M M B x S b D b Q ).V $ N 3 - bXh z dXwXt.z z o.k.hXlXaX7Xu.z.zXzX1X9X1X<XZ.j ",
"F.4.2.a p p r r e 9 t %.{ { *.} :.iX4X7Xu.:.XXI.^ e /.~ C v b _.3 3 v v T > Z ( d z gXJXdXz w w w t.wXjX8XCX:.*XwXJXxX9X<XZ.s.%.",
"F.0 <.p r q e q O O 9 -XFXb.:.-.3.PXDX8X#XyX5.r ~ ~ c c * * B C V (.( 3 E.E.b : m fXHXJX4Xz E U AXh 4XhX8XCX;XZ.t.JXjX1XS.:.o.l ",
"t k r q e w e q q O 9 iXpXz.O.{ l.PXPXfXiXuX4.G P.- M U x % * / W Q ' ) /.`.AXl.fXlXlXgXh K K.f J.ZXl.qXfXKX6Xy.l.HXkXZ.i.o.u u ",
"H 0 O e e q 9 9 O O 9 fX5XS.&.:.d.PXLXGXpXZ.z I D - ^ /.e * 3 3 ! V / 3 K.U U.4XfXFXl.z f I M m z eXt.<Xt.ZXCXOXi.dX0XZ.j u j u ",
"- 9 - - r F w 4.O 9 0 j D.pXB.S.y.aXLXGXaX8Xs.f = = D 3XS x > & 3 4 $ 3 ^.K t.~.fX4XP m f mXW.B f z s.k.8XM.#XtXu.tXpX+.j i u u ",
"= o - c r G 4.t r 0 w l d.5X5X<Xy.k.GXGXhX,Xg.`.S _.cX) ) - S C ^.$ 2 2 n B R J.J.H M @ - M c M n m P $.M.%.n.6Xu.tXpX+.$.l k u ",
"+ O D M G G G.J F p a XX%.y.pXZ.%.k.4XzXhXwXs.W.K.bX> 5 mX_ R K ; 8 7 ; > 4 B s F.I ~ x % > < Z 4 & H.H H j.l i %.d.pXy.j z l p ",
"- = M S G I U U H L t 9.@.i %.l.l $.Z.dXhX8Xl.E /.> Y Y & SX]._.% 1 # 8 5 1 % 5 - ) b 2 . , < 8 5 N m K r l s.XX{ d.6Xi.j l l u ",
"e M M G G J 4.J H 2.<.I.p p l 3.2.3.k.4XlX0XBXz bX4 # 5 Y . X ; ; . # 1 1 8 ; X 3 v 3 2 < . . 1 < n W.BX'.a t 2.g.7.8Xi.$.l k w ",
"e M M G L.U U G 4.2.a I.t a.2.L l eX@.k.sXgXl.`.).; 7 1 ; # ; . X X X . . . ; 7 ` Z (.V V 2 # 5 ; > T eXI.!.BX0 a d.iX&.$.t.H w ",
"M G U U `.L J 4.eXJ p p p '.p 4.u ~.5.%.l.fXOXE ) 2 Q ; < . . . . 1 , 1 7 > . 6 ! 6 nX3 % MXQ < 8 ; s SXg.j.r 9 u j.OX+.$.2.2.H ",
"G I F.4.T.a.G.L L U K p J a G.p t Y.U.VX$.j.~.K.C < V 2 $ $ ( W 1 Y 7 ] ! ; % 6 8 $ nXv S d Z # # $ o f BX!.G -X3.3.~.i z L l l ",
"J U J 4.4.4.U J U G r e J J r J p G.-X2.z p.E B 2 2 <   / P.S D > 2 Q Y ; ; . % ; cX' ~ Y > (.2X$ $ 3 o r [.r '.XX3.~.u f z H H ",
"L F.L J J J J G G M M e r T.4.r L J Q.H R m m n 3 ; 5 $ c e e x Z N $ $ % ; > V Y v > v v d ~ d N Z > B s f P '.XX~.U.h q F F H ",
"L.4.G L L l a a k g e @ p -XU 4.U F.U K c D = : % < 1 2 _ ~ + 2XV > ( V Q 5 > $ > ^.Y N N N ^ ) W ' _.- = e F.Q.R.R.a.h m F F r ",
"[.^ U G H U.XXg.Y.BXq r 2.XX-XI P.^ c - x   x . . 5 < Z / ~ 3 * 3 V Q / ` ( > % > / Y % > d R ^ A 2 S c - e BXI.-XY.2.w f m F P ",
"R `.^ L a 3.}.:X+XiXZX9 oX>X<.G c - x D * 4 $ $ 8 4 2 D S ) A ~ A / / A Y ^.Y / ; V 2 + n Y T S ~ v E.M T.G.U.I.%.j.2.u f M P J.",
"I K.I G a >X%X&X&X=X4Xh oX1.r c b Q W D W W W mXD 4 M _ ^ ^ mXI I M B ).) Y T Y / / 3 v n E.Y Y / BXL.`.G.4.9.5.7.M.iXl f e L p ",
"M ^.I G <.>X:X X@X=XiX9 XX2.r D A W c I S ) x c e K.M I 4.G G J.Q.P F I R T n & & * & & D = I I S I m G.5.R.!.I.%.OX*X2.q m U G.",
"S B ).G [.a | >XoXoXt 2.-XL I T W S P.P.I I G c r m M J L 4.G.T.[.0 2.G.R `.R S x = * V D - - I c P.w SXT.G 5.| f.uXj.u q K L L ",
"_.~ ~ I 3XL.M e U F I.2.G r /.P.I M U U G M M r e r U U I.>XT.T.p r 4.-XT.T.f q e + * % % * e S ^ L.e m I T.R.g.h.iXu 9 r m 4.[.",
"W ^.^.3XI K.].I s G G.5.G L.T.T.G L '.G.J M U G K P.F.KXT.>X9 w O q 9 O j 2.U.w M - + + % * - c e ^ M 9 M G.g.{ 7.3.G r K 4.J.F.",
"D ~ ' ) 3XI L.D ^ I T.<.4.U a.4.4.<.<.1.a.U r G U U '.L 4.O O s O @ O O 9 eXXX~.p G e = = - + + e I M e I G >X0.|.a r M J F.[.T.",
"3 4 D )./.bXmXK.e ^ <.5.4.p 5.5.9.XX1.-X5.p G p p J I.G.'.9 k s B N & o O iXj XX<.J r ~ c = 3 = e I 3XG.G <.|.;XR.a q I J -XT.L ",
"W 8 ( ) ).^.c ].^.P.G.4.L <.| 9.| oX6.7.7.| J J g.<.I.>XM.oX-X0 s E.n g 9 4.a oX1.'.r e - 3 = = e U p J <.G.6.}.1.p r U '.G.[.BX",
"( D D ) ).W D S ^.- r U p J R.9.6.h.#.|.}.[ 1.t I.h.9.yXm.:X*Xh.w w q q w l I.t -X<.4.r - = e - e 4.a I.R.;Xe.m.-Xy t 4.5.BXT.BX",
"8 < 8 4 3 . = ^.L.).e L.J <.5.9.R.|.n.-.e.[ | y 8.e.VX:X-.rX6X+X*X*XOX{ OXoXCX7.| 0 G.p G G e G r 0 oX%X0.}.m.:X0.1.|.I.VXT.SX4.",
"W 2XcX  ,   D M )./.= - F.F.<.a.| R.e.r.8.&X9.1.6.}.%X%X*.*.#X6X6X6X#X+X6XuXM.8.a >XL r 4.r e F 9 G 0.m.:Xm.&X&X[ 1.-XVXAXAXL U ",
"V C ' 8 vX( ^.]./.I ^.^.- G p 4.J | [ 6. .;.-.6.8.-.6.n.M.{ 0 *XiX*X*XyXyXy 6X:.n.9.<.p J w r e e 9 <.%Xm..X&Xr.y <.VXVXBXF.SXD ",
"< < , D 2 W D D ].L.~ D ~ U L p L !.:X&X..-. X}.n.0.e.6.6XyXk.t u o.y y t j.:XyX-.h.T.p L p p J G 0 9.e..X.XX.@X#.VXAXVXG.BXI I ",
"vX7 1 ( V bXW W `.P.F.U r J <.5.r H 8X=XX.w.=X[  .#.-.rXuXpXdX8XS.i { { [ :X=Xn.[ 6.<.a a <.t R.i XX-.VX@XA.$X*.N.*XCXBXBX3X).bX",
"8 8 8 ' nX(.2XD /.`.F.J.a J 1.5.k z OX7Xq.@Xq.V.}.}.m.>.#XS.pX0XpXx.*XM.;X:X}... X| | J 5.| 1.y [ e.m..Xr.w.=X=.=XrXZXBXBXbX2XS ",
"(.NX2XZ nX(.(.D ).L.BXR.5.#.| 5.2.u k.#XdX*.=X=XV.w...}. XC.$X#X7X6XtX:X%Xe.e.-.oX0.1.R.2.a  .-.e.&XV.A.@XtX=.@XuXVX2.[.W.^.B cX",
"] 7 nX(.W ( 2X= I P.<.I.0.#.6.7.5.y j tXu.S.,.C.C..X[ }.-...v.$XtXrXrXO.8.[ |.8.#.6.6. .[ | [ :X@Xr.C.@X$XA.>.&XZXCXF.bX3X_.Y bX",
"7 8 (.vX2 8 ~ ~ ~ [.p |.6.m.8.-.-.oXu h pX5XS.6X>.=X@Xw.} } e. X[ *X8.7.-.#.| | | #.| |.[ 0.=.r.&Xv.C..X+X*.v.tXKX~.[.bXN Y bX2X",
", 7 8 vX8 ! ( D S ].a >X-. .8.m.8.#.k k 4X5X} *.{ [ @Xm.8.[ e.e. .6.6.Y.0.1.I.i R.a 9.6.9.-.;.V.C.@XA.C.+X[ >.rXVXs.I B 6 2XnX( ",
", 8 8 , ! 8 8 ! _.BX| VXm. . Xm.m.-.u w h HX5XS.v...;.} rX:Xw..X;.-.7.6.| | | |.9.1.R.t y t  X@X@X$X6X$X,.o.{ VXuXJ.].bXY ] ; Y ",
". , 7 X , Z 8 ! ) F XX:Xr.=.} n.e.8.| k g t.7X<X5X[ ..c.*.=.A.w.;.8.[ -.1.9.1.#.[ | | | | #.@XA.v.$XS.$Xy.o.rXiXI.[.J.b Y vX1 ! ",
", X X 7 8 , 8 Y ).G {.=Xv.@XV.m. .e.oX1.w g qXjX<XZ.x.B.@X*.V.r..X=.;.8.#. .[ %X1.[ 7.O.}.tX6XpXA.$X,.u.b.c.N.uXI.Q.K.).) Z 7 W ",
"vX1 vXvX7 Y ] ~ _.w h.+XA.C...#.-.{.8.|.w f z kXDX7X5X} A.w.q.v....XC.V.8.6. .8.}. .;.q.=.$X#X6X7X#XM.y f.S.N.rX!.`.~ C ( nX( vX",
"] ] vX7 V cX2XS W.'.9.=X$X>.+XO. .-.-.|.p r u y.DXlXqX5XO.5XS...r.v.$Xq.-.[ ;......Xm.c.S.PXZ.*.O.y %.@.f.j.M.6.5.`.).D ] 2X7 ] ",
"MX] vX! MXMX(.M ].-X%XV.6XN.sXO.e. .8.0.<.k k $.Z.aX9X9X9XO.D.7XC.X.tX>.N.X.r.@Xv.v.6X6XtX8X&.i j @.i i Y.oX{.h.!./.].v cX7 8 8 ",
"( (.NXY 1 vX2XB L.5.+XV.B.B.tXy w..X;.6.R.1.a a y.y.i.kXHXdXwX1X5X+X+Xc.x.S.B.S.tX6X7X$Xu.&.i o.j a i s.U.Y.9.XXJ /._.) Z 8 ] 1 ",
", ! , ] ! nX+ M F.<.>.A.w.5Xf.8.v.C.[ &X .}.1.|  .} [ f.u i qXDXk.&.y j.sX7X6X6XtX6X5Xu.O.o.o.u u l s.l k I.1.!.J.K bXQ Z Q 1 < ",
"7 1 (.1 5 v ).B J.XXm.C.B.tX%.0..XC..X.X;.&X|.0.n.V.>.c.i u h z g w w w ZXtX{.{ d.y.o.d.k.l.4Xs.q O O q k U.g.$.'.`.S (.6 Z < ] ",
"1 1 ! 1 % Y SX).4.;Xc.w.S.sXf.{..XC.r.&X}.%Xn.}..X@XV.=X+X%.l u K.T U P $.9 0 0 0 0 w u t.J.W.H.K H.T B _ J.!.-XU `.].' ! Y < nX",
". 1 1 7 D A _ U 2.|.>.*.7XtXM.c.r.v. X:X0.|.m.-. X@XS.u.tXi M.7.l l | :.oX-.t h w q @ q s f K E m T T T R p.I.<.5.e /.A 2 8 2XNX",
". . ] cXZ D c U 9.7.f.=XtX=X+Xc. X&X}.6.9.9.|.;X X@XA.sX6XO.S.*.h.i *Xq.N.e.uX!.k q - N d f E K R T g K.R H.U.-X0 T.E.) % ( ' ! ",
"X . 1 MXQ x ^ G a 0.6.rXN.&XyX&X:X|.6.#.y 9.h.}.+X=X6X7X7X<X9XsX,.M.=.V.@X}.;X<.$.SXW.I ^.e R m T g T R /.E G L H F.~ 2 < ( vX] ",
". 8 X cXMX& e L I.0.#.M.rX@Xn.{.6.oX| 0.9.XXh.}.&X=Xy.:.5XS.S.5X+X+X6X=Xc.[ [ R.Y.2.P T ` ` T m g T T d d T M P p K ^._ 3 ` NXvX",
"1 7 . 7 nXx ^ G @.h.n.N.rX&X}.7.}.#.#.8.}.}.+X=X>.&Xd.i {.q.V.v.e.[ [ ;X-.t a l p.p L P.SXT T f _ g s v b c G L J J T ^.D nX(.NX",
"NX] 7 . 4 : K G.3.h.}.n.:X&X%Xe.8.h.oX7.N.&X6XA.v.O.i t [ }.V.w.[ [ y y {.g.0 9 q P p f d W._.3X3XW.& d x e M G a.3X_ S ( cXnXvX",
"] NXvX. ( b /.G 5.I.rXn.r.e.}.0.}.#.{.%X&XA.$Xx.&Xy [ h.9.| e. .-.| y t y 2.q e f H.f T C C N s d BXd e ^ ^ U G p F O x E.` / ` ",
"1 NX! 7 C - _ K I.1.yX%X&Xm.-.|.h.:X{.:X$Xw.A.A.*.8.%Xh.9.1.0.6. .| | a a t r s M ^ r M A C A _ d K m T c ^ M G r 9 e d ~ 2X_ _ "
};
