/* XPM */
static char *_553b44ec6ae462584300790051c13b3oOTwnVMN9vg14n6p[] = {
/* columns rows colors chars-per-pixel */
"64 64 249 2 ",
"   c #4A2A0A",
".  c #502E0B",
"X  c #54310B",
"o  c #5A350B",
"O  c #5E390C",
"+  c #543310",
"@  c #593611",
"#  c #5D3A12",
"$  c #613709",
"%  c #643C0A",
"&  c #6B3E0A",
"*  c #633E13",
"=  c #6C4407",
"-  c #66410A",
";  c #6C420A",
":  c #6F4809",
">  c #794807",
",  c #73440A",
"<  c #794609",
"1  c #744A0B",
"2  c #7B4B0A",
"3  c #7C5006",
"4  c #7E520B",
"5  c #654115",
"6  c #6B4313",
"7  c #6A4518",
"8  c #6C4519",
"9  c #6C4919",
"0  c #714612",
"q  c #734A13",
"w  c #7B4D13",
"e  c #734B1B",
"r  c #7A4E1A",
"t  c #7D5215",
"y  c #76511E",
"u  c #7D521B",
"i  c #754D22",
"p  c #7B5523",
"a  c #7C5422",
"s  c #824C07",
"d  c #834D0A",
"f  c #894F09",
"g  c #845307",
"h  c #8D5506",
"j  c #875A07",
"k  c #8E5A07",
"l  c #84520B",
"z  c #8B540A",
"x  c #86590C",
"c  c #8C5B0B",
"v  c #935707",
"b  c #9B5D07",
"n  c #94560A",
"m  c #945C0B",
"M  c #9B5C0B",
"N  c #814E11",
"B  c #835313",
"V  c #8A5613",
"C  c #855814",
"Z  c #8C5A14",
"A  c #83551B",
"S  c #855A1B",
"D  c #8C5C1C",
"F  c #945D13",
"G  c #9A5D11",
"H  c #925E1A",
"J  c #A25E0A",
"K  c #956207",
"L  c #9E6306",
"P  c #94620B",
"I  c #9B630C",
"U  c #9B6A0B",
"Y  c #8E611B",
"T  c #946214",
"R  c #9B6313",
"E  c #9B6913",
"W  c #94631B",
"Q  c #9A641B",
"!  c #9D6A1C",
"~  c #A46306",
"^  c #AB6505",
"/  c #A46A06",
"(  c #AC6C06",
")  c #A3640B",
"_  c #AB6609",
"`  c #A46C0C",
"'  c #AC6C0B",
"]  c #B36C06",
"[  c #B2670E",
"{  c #B46D0B",
"}  c #BA6D0B",
"|  c #A87109",
" . c #AC720B",
".. c #B97707",
"X. c #B4740C",
"o. c #BB740C",
"O. c #BC7B0C",
"+. c #A26513",
"@. c #A96611",
"#. c #A46B14",
"$. c #AC6C12",
"%. c #A2671B",
"&. c #A36B1C",
"*. c #AB6C1B",
"=. c #B26D14",
"-. c #B06E1B",
";. c #AC7314",
":. c #A5721C",
">. c #AC731C",
",. c #AD7819",
"<. c #B37414",
"1. c #BA7312",
"2. c #B67B13",
"3. c #BC7B14",
"4. c #B2741B",
"5. c #BB751C",
"6. c #B37C1C",
"7. c #BB7C1B",
"8. c #825622",
"9. c #855C24",
"0. c #8A5D23",
"q. c #875D2B",
"w. c #915E22",
"e. c #8D6224",
"r. c #8D622A",
"t. c #8E692B",
"y. c #946324",
"u. c #9A6523",
"i. c #966925",
"p. c #9B6C23",
"a. c #94652A",
"s. c #9A672A",
"d. c #956A2B",
"f. c #9B6C2C",
"g. c #9B7129",
"h. c #9B712C",
"j. c #8E6230",
"k. c #966933",
"l. c #9D6D33",
"z. c #9D7333",
"x. c #A36C23",
"c. c #A76F28",
"v. c #A47224",
"b. c #AB7324",
"n. c #A77827",
"m. c #AD7C25",
"M. c #A4732C",
"N. c #AB752B",
"B. c #AC7B2C",
"V. c #B37522",
"C. c #B57B24",
"Z. c #BC7C23",
"A. c #B57C2A",
"S. c #B87928",
"D. c #A16D33",
"F. c #A47333",
"G. c #A87832",
"H. c #AC7B33",
"J. c #AE7B3B",
"K. c #B37C31",
"L. c #BA7F33",
"P. c #C57907",
"I. c #C37C0C",
"U. c #CF7A0C",
"Y. c #CA7D0D",
"T. c #C77814",
"R. c #C37D14",
"E. c #C47E1B",
"W. c #C17D22",
"Q. c #C17F2F",
"!. c #BD810C",
"~. c #BD8213",
"^. c #B6821E",
"/. c #BC821C",
"(. c #BD8424",
"). c #B8842A",
"_. c #BB822C",
"`. c #AE8130",
"'. c #B48234",
"]. c #BC8332",
"[. c #B9863B",
"{. c #C3820C",
"}. c #CB8708",
"|. c #CD840B",
" X c #D3840C",
".X c #D9880A",
"XX c #DB920A",
"oX c #C38313",
"OX c #CC8314",
"+X c #CC8915",
"@X c #C4831C",
"#X c #CA821A",
"$X c #C5891B",
"%X c #CA8B1D",
"&X c #D38B12",
"*X c #DB8B12",
"=X c #D48618",
"-X c #D38B1C",
";X c #CF9118",
":X c #D89618",
">X c #DD941C",
",X c #E4900E",
"<X c #E18E1B",
"1X c #E69718",
"2X c #E6A019",
"3X c #C48423",
"4X c #C88724",
"5X c #CA8B24",
"6X c #C3842B",
"7X c #C48B2C",
"8X c #CB8B2B",
"9X c #D48B24",
"0X c #D68A27",
"qX c #CD9223",
"wX c #CC942C",
"eX c #D39324",
"rX c #DB9424",
"tX c #D99925",
"yX c #D3932D",
"uX c #DB9A2A",
"iX c #C28433",
"pX c #C68C32",
"aX c #CA8C34",
"sX c #C38A3B",
"dX c #C98B3B",
"fX c #D38F37",
"gX c #CB9333",
"hX c #C89339",
"jX c #DA9432",
"kX c #DB9C35",
"lX c #D59638",
"zX c #E49823",
"xX c #E39A2C",
"cX c #F09E2A",
"vX c #E59B33",
"bX c #DDA22C",
"nX c #DCA13B",
"mX c #E6A737",
"MX c #EEA830",
"NX c #BB8844",
"BX c #C78E48",
"VX c #CC9741",
"CX c #D89A45",
"ZX c #CE9850",
"AX c #E09E44",
"SX c #D6A24D",
"DX c #DAA74B",
"FX c #E3A546",
"GX c #EAAB54",
/* pixels */
"' o R V X E.l g < p 5X{.< ( M   L   v   t ; Y.& l.    . a.I.@.x n w.6., 2.t   X ,     M l 5   gXY Q Q w.M.@ I.qXX , )   K L s % ",
"t R.  B   % %.G I   / ; I X   X o @Xt , t   j   .   B.  * A.b.rXr } #.{ l #.    f.@.  g.# '.- ^.9 K.W.c.eX! X   /     ;       I.",
"o oX] & B ..  %     c     n = uX] % 1 5X6 6     l   x 9...dX5X@ x ;.3.4X3.3.  M 2 M & 6   hX8XlXe B.C.*.O M <.T     b ' h K C.P.",
"g k ! o b   ..X ; & l O O ' 9 $Xk   #.. t C , n   e.  . F 2 %     ,   9XM   o oX,X! m :XO Y ).gXDXA.u.C.$.4 ~ (.g 2 |.; R X P.^ ",
"oXI.O.:X; D g ; g #.% X [.l ;   1 % ; , ; , d y.& o >.- |.#.$.  ( {.  o Y.z >X*.& 4X;.$ ~.W v X iXmXrXO f n > I l I 6.l O s  X4 ",
"I.x X.%XX 2 c M X tX| @ l.; .   X $     n .   X   H '...X 5 0.3.P % |   ' P.I.U.n % #X^ T   i   G.  S.N.X X m N.m = , 7 O.m.!.; ",
").4XO.  K # qXn   yX% O.5 o l = T.' } % < % , n s +.  `.qXl R.  , c ).m I T.I } ... :.2   X 5 K.6 [.pXhX5 $...  O I l # |.P X.$X",
"oX&   G R 4 R E .   ; 2.o % . A.2 v.b.U.1.  f o.q , w gXI   9.d   ! *.&X] b.} P.2 N.  L Y Y - m W nXS t.o A.r * < O.` ~.tX!.C p.",
"m ..( 2 t 7.) 0 6.s M ` < h.eXM u.@.  P.M & l   p.W 3.B.  2 , B e.3X* E.m 1.jXJ & h . J v 2 . %Xp o @ u g   #XkX, ..+Xh.  ,   2 ",
"O $.; B %XtXZ ) H o.X.e.I 8X* X i.  & s   n 7 . h X (.- o.> X B 2 d., k X.|.  A   & 2 2 ; m (.h l.    <.. % `.6._ s   X 5 D ; & ",
"X {.@ X   . 6.l 7 e S >. X        ,   s   X p.2   zXr 2./.h.b.v b.^ h.c 2 -X  _   4 X     = n & 2 , * j c >.  W oX).,     I.& W ",
"N., &   .._ 3.`.4.} M n }   yXt X     , gX@.n.uX).T Q e ; qX; f.  . z   k <     % k d 6 e.. J V.- o T ;.c %X%XeX@XO.( o P g i.W ",
"  C T . B t lXR.P.,.L T   n % [.  $   % pXp.S q gXg.wXq #.d 3Xb.$ pX2   6XA.% d.o   H z 0 n Z.X   K   7 M.  X ` P ,.).h.F W H.% ",
"  <     (.pXR v I.% M   3.Z 5Xi.  X     2 n o OX5Xo d x 4XzX; u.8.A J., X a.O.    &.d d     I ( s O.    d .   C.4   d.:.K U 9   ",
"  f.p F.vXw g.g.d v f X   @   A )   < X     l 2 J   +X7 @.% S o l 1.  * . R   9 B X X.,   6 < I _ 5XY.  z (.; B 5 aXN.1   9 5   ",
"  a.  9.hXkXZ O   p.t.7 O f.  < %   ]   X     `   , ) , 2 <.)   n   e +.x.6 >X'.4 Z.zXN.0 x $XY.;.1X#.n t mX<.N.5X:   oX~.X %   ",
"B.DXp lX[.d.).).;   V 2.W o   V $ s d d       R d *     % Z.R q M.a.*XA.  x.3.kX9XyX] X.  x ~.}.XXb.E.Q D J.1 3XX P 1 * B.J.+X  ",
"e.:.x ! mXMX= y e ..v.t.M.x.% o   % G $ $   F , H.      @ < G } o ].@XV.p Q :XdXH kX' M . Q  .>.oXn cXeX-XaXOX% G.@Xu.rXT   ;.e.",
"i.pXj c C.&.p.  y P...  C., s n   w n M   O   ) d R , , F C I &X( @.6X` L.lXaX  ;.R @ A , {.>.+X/ >XvX{.|.MXl l ^.X uXbXb.y   DX",
".XP./.M.wXkX6.e X 6X  , ] o   J F w.  *   s.l   ) x   V   B v   L q T 1.n H 8XC.q t o Q T }.}.X.u..X.X XOX>XqXmXp.&.A.VXgXB.5 X.",
"1X(. .E p.O.0.6 6   K { J M mXq.; @.X $.0.n , 3 d *X    =Xx >XB ;. ., {.< , #.&X& +XQ oX; C.oXM & &.m *XcXlX).F gXhXX.eX!.2X'.d.",
"m.OXb.a.v F T U h       P.0 . G   < l I.l   O Q   R B l +.$.  6 $.*XZ h z l % W 1X>X+X1 B   B =.E.3X.X] kX,.` 6.X.E 3X).q - ,.< ",
"  2.t :X  S.1.}     < _.X.  o &.O o O ;.w V q     d Q 2 O &.+ X     1. .%.iXr B :Xx . <.; H.yXo } kX;.eXyX+XC yX1X` 3.V.6.a.$.oX",
"qXnX$.<.2 $ % ].* .   *.J c.3.4   lXw #.l   . Q     n E.T 4   % r.B.a.5.I   ~ 7.w   *.P >.; s G m ^ M.i.tXMX&X(.D #.>.  uXqX;.r.",
"C @Xt 1Xm z 8 S.      4.U.m # aX7X* u.&   0.  9.. & A a., W @   G A B l   N.<.+ d.% % % { O.O . ,.z u.O ,.@X.XL '.S 5 y.6 bXT ; ",
"- 1 {.o.I., t @.dXNX  n , 2 ! Q.. < x.  G w 9XO G < 0.A x.X ,     @ D.T.0 2 r.2 P 2 V M d { +.< ].5 G.u.' 4.T r 9.+X/ p h.2.C 6 ",
"  c P t I n [.. L r.@ a.. 2 z * 0 x.s.  S @.1 G -.=.& b % 2 # W +   G , 1.[.% S F.2.oXV Y.m @.B e O k.-X#...P mX8Xj O x ].6.- O ",
"M X U i.d <.I.r.h.h.8 f.  1 f r H iX@.u.G 3.l 0 %.[ z 0.h iX  O N.a.  Q.o F.f , @ . 9X*X( I.< >.d yXvXtXR @XeX&Xj - -     U m 3 ",
"  ; & @ < r.O $.i z 8.  k., ;   , *.6 _.<.+.n %.@.d     M.* 0.A x.! #.D O R.i.l   yX3.I v X.( 4.T c 5XwX2.w lXtXQ c % O , I.#.  ",
".   % I.$.' o   I   X r ' X   *   @ R.1 3.Q <.$.5.9X  & H dX2 b.R a.<.d mXE xXa     oXd.> M ^ 7.h ( 3.lX5X  #.. /.1 1     <.l   ",
"K   1   . % g CX@ 4       $.  H . z 6XuXb.Q #X  w %.W M $ y.* G.y.$ ` D pXz.5X%.@ z gXs #.>XB.1._ U.>.aX(.4X~.9 G   %   : B E T ",
"# . I.    m H & c ; h.@.h.  e % . 4X%.R._.    VXN &.  N   , G % , ^ ~   4.hXA._.=.F.2X2 > 5.I., b h 2 '.rX~.h h.    a p S t u m ",
"+X  # . m = NXG y.2.F.  ;.X   6 o L R W * a.8X'.H G u.* V n       {.( &X<Xa o O 9XdXiXd o.l #X7.E 0.M F +XS.(.* % & *   l.NXE.+ ",
"n ; u.  I l n 8X& l.7 8XR o *   k.S H / &.7XG.O 5.G     *.q a x.W.. m & V.5.2.2   d.5XH.0 9XV h ] R   O E.1XY.Z.  h V H Y 8.+ @.",
"    s h d jXfXs # % ; t.2 e.    @     O O w N.s.. H       & y.aXG.dXaXw =XI <.      ].'.X z U S M . 0XJ =.  I.-Xq.jXc C.. , J G ",
",     o <.` X =.&   = NXNXO     ,   s B P ,   f.  0 w O     e   A s.5.d ) O     k.K.2 i L.'.3.6XI.7 <   R.  m H Y.K.vXGX2 2 @XM ",
"z     O $.m &X; , < ;   o * pXp.X A O.  @ # 8.      . , a.% b.  % Z   P 2 3.o.l ; X & U /.p.k   &   P.G 0 <.;XR X q , b.n o   G ",
"$.  , !.<.&XX g o O n       r.  p 2 B o aX9.    a +.@ @ %   o V.  8.].$ 4 G ) - l.<   9.X y   J.M 0 @.T i E F _ , $.aXv.a y.  % ",
"x.o.8 x.' } r <   A J w a.K.M.9.! % I @ e o $.u.  D.* l       R.Q.O % l o   M +./   7 Q ; Q T D < } d #.*.;.% A.GXK.ZXa.F s.e & ",
"O N Q   {.U.O.% J , Y.&.% x M.* B.D v.C T r 7     k.        2 ; =.+.s.n _ 2 , %   k +X< #.k.% B 2 ' *.& s ;.{ &X% & R $ r H BXq.",
"c.  * @ P.U._ 2 d 1.n     r , A H.            u 4 :.  ; ; P & l #XC 3X  m < O ! X % 3X,   C.D # N 2 _.m } l Q T.& . t k.d ! c Y.",
"@.0XU.  1.<.n J ,  X& . w   B.y.        R   V a.X SX  j ; , ; I (   ,   ; m ; W e i fXI % 2 a.|.l $ ].ZX8.*.O ,XT j H < . & 6 < ",
").[.CX* d M *.8XM 2 R.  K.6 Z ; t       G k   ; - ; :     % 1 =.Z.@.    6 , Y 3   [.J.:.  %Xf.[.uX4.    *.R @.d *.h.  . Z 0.pX6.",
"6 :.n & B e V h   %.. jXS.r 0 2 D   F o R B , l   X       $ X &X  M . l l < E.c   Q 2 I & U dXX.f.x.R xXmXnXw F < [.A R 2 { [ 9X",
"l , . A   6XhXs.y.H.* 2 ;.  ;.2.R.o y.+.F.C.o H.X 3     .     L % o.m       D , & 6Xp   x ;.jX7.@ kX0 F b.L.w . @.  * % 8.S N ) ",
"7.Z.U.[ { X . e F.R.  N.T N.M.' 4 >.    @ #.T = i.  %     , 4 / ; c I   3X2 = ).    e.#   rXx.~ 3.uXcXE.V.[.7 J.R M n @ . s.l.$ ",
"=X  A   [ & q w L.<X  I F.).I 3.E V.; 4 E 6 X   y   j ;     X . P   l k   6Xj b.n W A r ;.U zX(.].MXoXJ.8XCXCXl.sXk.o.L.n < M GX",
"FX{ S.D 1.9 l.. F.L.@   w = :.  o 4 * B.p   o w 3 -   P ; 1   O   0.x.O / p.X ,.v A yX    O b.V.7.s.u.V vXf.J.hXu < c.c.& & d =X",
"s.0X0 M D X r u s X % * *.&.6.6 P | DXq 4 - lX#.%   .         2 -   *   x 1 g @.  n 7Xo T sXb.` o w N.AXY i v.) B.  r.    d X B ",
"fXMX1.=.      1 C.p.0.j 0 1 4 P E @ 7Xu E a.k   & o   - %     n X 1.) % & ( % I ) 2 < i 5.! Q w s.e /.F.o BXE k.M.  iX    O ,   ",
"_.X A.9 $.7 # +..   a.7X).yXyXgX- mXu f.DXx k ; $ j   4   ;   *   ( >   G , d   G       E   z 0.X     BX8X5X- r.6X  p.  $   , a ",
"x.& h   0 a.2 $.Q N.; v.b.3X(.t %XO CX!     ( = l % % X 6.= 6 3 g % 7.1 O < l < h 9 , NXg.% 7.8.iX  H.< 1 H.b.3.1 M.  7 & o     ",
"! ,         % 3X-XO.E w m.4.F t   v.v.z %Xm.% O X   T   Q k P %X  E ; = - % g s   . h   & B.  ,.J.R.@ *   f.) A ;   hX  m d.z o ",
"9X  3 2 g     L.v.#.).H   U ;.y.Z.gXq X X 5 (.^.8X  U h   R.I | | +X1 F v g g *.I 2   <.X ' . sX  '.* X ! i.z     f.h.3.q P o g ",
"            %   ` 8X2.  U P <X& x.* 3XZ ' yXXX|.P ;Xb J o r M I g Q O       O     `   ) =   - 5XX s u.7 p.  ` ;   ! hXm.& , 0.A.",
"u.i   X > R 1   H w   v.<.  E.l ^.3 M ; I.;.(.(.;XM.P ;   o d * >.b . l     U       $.% O <.( !.l D.R % V  X      v.eXg   2 b 3.",
"OXb.{   6XaXxX-XC.x ~.%X4 $Xi.- x   3X` lXwXq h :.f.1 1 O * 9X@     1 %   g 4 t     S , v.  c D.p     a.  F A., ,.P K   K g oX}.",
"|.%X].F.j ,.3._.Y.h P O W -     4 ` &.n R ' pX, E 4   4.z , w     1 m X.  i.,.e.i.o w   1.v %   ; p     CXw +.FXE gX. X.P $X`.XX",
"s ~   X G M o O d ' 1 $X3 ~.O   X W / & ,.  . s.qXd.)   1 X   , ; O . 3 O L . R -       &._.9.:Xp   d.X . 0.L.  W . S bXU mX4Xj ",
"  C.A ].. B P g V.$XX.P           | 1 | z w w I # S   oX.   2 @Xo )   +.X.- I x u   - $Xh   5 M.O   7 a.N 3.H <.).E P :.g.M.5XOX",
"2 9Xx *.(.1 v X c j +X    P     & & o ] 2.L B < x.3.  <Xf.; @XR ) l g 2 <.v.x.% P ; t   & d 7.> 7   G.yXD FX&.$XXX}.SXwX  P @X% ",
"R y.K.a.) k {.@XX . -       - ;.U 1 &.= ,   r.X P _.| X % 3XVXG.` ,XE.o m B X O :.%   F , O 9XS q 7XO q 6.&.qX> / O .   ~.1 h.P ",
" XP % % $ $.x / X   1 . p.    3 k 2 W .   &.  6 | h   . v.X.(.0   xX*XX 1 #.  e.R o C.6X  A.jX(.t nXA.e   2 ( 2 ~ -     ..E T / ",
"O.  n D :.m o |.| k 4 `     c   y   q z - <   d , f.  l Y.) O f.$XK 1   <.e.).d.  p.2       y E kX>.u.tX%Xg.XX..  }.M 4 - Y   | "
};
