/* XPM */
static char *_52a9c96780f4ced879de315f295588d8eSADOFOURSzkH2A[] = {
/* columns rows colors chars-per-pixel */
"64 64 256 2 ",
"   c #6B0200",
".  c #770800",
"X  c #7B1601",
"o  c #590000",
"O  c #880800",
"+  c #990900",
"@  c #841300",
"#  c #8B1300",
"$  c #8A1C05",
"%  c #9C1300",
"&  c #9B1B01",
"*  c #931902",
"=  c #A30D00",
"-  c #AD0E00",
";  c #A41500",
":  c #AB1400",
">  c #A41C01",
",  c #AC1C00",
"<  c #AD1F09",
"1  c #B31400",
"2  c #B31B01",
"3  c #BB1D01",
"4  c #B81802",
"5  c #8B2306",
"6  c #992406",
"7  c #9B2B14",
"8  c #912A15",
"9  c #A32303",
"0  c #AC2301",
"q  c #A82907",
"w  c #B32301",
"e  c #BB2301",
"r  c #B42B01",
"t  c #BC2B01",
"y  c #B82A0B",
"u  c #AD3301",
"i  c #AA3902",
"p  c #B53300",
"a  c #BD3301",
"s  c #BC3B00",
"d  c #B8330A",
"f  c #BB2C13",
"g  c #A93418",
"h  c #B73517",
"j  c #A82C12",
"k  c #AB3B22",
"l  c #C21D00",
"z  c #C42401",
"x  c #CB2501",
"c  c #C42C01",
"v  c #CB2C02",
"b  c #C52B0A",
"n  c #CB2C0C",
"m  c #C5250A",
"M  c #D32D01",
"N  c #D62B06",
"B  c #C43301",
"V  c #CC3302",
"C  c #C43B02",
"Z  c #CC3B02",
"A  c #C3330C",
"S  c #CC350B",
"D  c #CC3C0A",
"F  c #C33B0B",
"G  c #D33302",
"H  c #D33B02",
"J  c #DA3D03",
"K  c #D3330B",
"L  c #D43B0C",
"P  c #DC3C0C",
"I  c #DB3408",
"U  c #C82D13",
"Y  c #C33313",
"T  c #CB3B13",
"R  c #C93718",
"E  c #D23414",
"W  c #D33C13",
"Q  c #DC3C13",
"!  c #D83918",
"~  c #D12D13",
"^  c #E33A0B",
"/  c #E43C14",
"(  c #F03F16",
")  c #D13C22",
"_  c #E83F20",
"`  c #BA4800",
"'  c #BC5700",
"]  c #AB4400",
"[  c #BB6800",
"{  c #BE7800",
"}  c #BF462B",
"|  c #C44301",
" . c #CB4301",
".. c #CC4B01",
"X. c #C74906",
"o. c #D44302",
"O. c #DB4402",
"+. c #D34C01",
"@. c #DC4C03",
"#. c #D3440B",
"$. c #DB430C",
"%. c #DC4C0C",
"&. c #D44B0B",
"*. c #CD5301",
"=. c #CC5B00",
"-. c #C55700",
";. c #D35301",
":. c #DB5303",
">. c #D25C01",
",. c #DC5B03",
"<. c #DA570C",
"1. c #CA4319",
"2. c #DC4213",
"3. c #DC4B13",
"4. c #DC4319",
"5. c #D74719",
"6. c #DD5617",
"7. c #CE5910",
"8. c #E3440C",
"9. c #E44B0C",
"0. c #E74909",
"q. c #E2540C",
"w. c #E5580A",
"e. c #E34314",
"r. c #E44B14",
"t. c #EA4A14",
"y. c #E44B1B",
"u. c #E94619",
"i. c #F34A19",
"p. c #E55214",
"a. c #EB5313",
"s. c #E45D13",
"d. c #EC5C14",
"f. c #EC531A",
"g. c #EC5B1B",
"h. c #E3561D",
"j. c #F3541B",
"k. c #F35B1B",
"l. c #F65819",
"z. c #CB6600",
"x. c #D86804",
"c. c #CB7702",
"v. c #DA7704",
"b. c #DC6614",
"n. c #E5670B",
"m. c #E7760C",
"M. c #EB6B15",
"N. c #EC631A",
"B. c #E96615",
"V. c #F4641C",
"C. c #F5691A",
"Z. c #EB7716",
"A. c #F5761C",
"S. c #CA4726",
"D. c #D84926",
"F. c #D95636",
"G. c #D4542D",
"H. c #EC4C23",
"J. c #E54924",
"K. c #EC5423",
"L. c #E95727",
"P. c #F45425",
"I. c #F85828",
"U. c #F75A32",
"Y. c #EE5632",
"T. c #EB6625",
"R. c #FC6224",
"E. c #F46B23",
"W. c #FC6B24",
"Q. c #FE632B",
"!. c #FD6B2B",
"~. c #F46527",
"^. c #FD7323",
"/. c #FB7B23",
"(. c #FE742B",
"). c #FE7B2C",
"_. c #F67726",
"`. c #FE6433",
"'. c #FE6C33",
"]. c #FB683B",
"[. c #FF7B34",
"{. c #FE7637",
"}. c #EB6E2B",
"|. c #DF6126",
" X c #FF7744",
".X c #EF6B47",
"XX c #DB6E51",
"oX c #BE8500",
"OX c #DB8704",
"+X c #D59504",
"@X c #E48607",
"#X c #EA8814",
"$X c #F5871A",
"%X c #EC9615",
"&X c #F5971C",
"*X c #E5960B",
"=X c #EFAB18",
"-X c #FB8B22",
";X c #FF832B",
":X c #FF8C2C",
">X c #F88625",
",X c #FE9C2C",
"<X c #FC9627",
"1X c #FE8334",
"2X c #FF8B33",
"3X c #FF8B3B",
"4X c #FF843C",
"5X c #FF9433",
"6X c #FF9C32",
"7X c #FF943C",
"8X c #FF9B3B",
"9X c #EA8727",
"0X c #FDAA24",
"qX c #FFA42B",
"wX c #FEAB2C",
"eX c #FDA424",
"rX c #FFB42C",
"tX c #FCB926",
"yX c #FFA434",
"uX c #FFAB33",
"iX c #FFA43C",
"pX c #FFAB3C",
"aX c #FFB333",
"sX c #FFBB33",
"dX c #FFB63B",
"fX c #D9A305",
"gX c #FBC629",
"hX c #FFC738",
"jX c #FFD539",
"kX c #FCD32A",
"lX c #FFE13D",
"zX c #FE8745",
"xX c #FF9747",
"cX c #FF8A54",
"vX c #FF9657",
"bX c #FFA343",
"nX c #FFAB44",
"mX c #FFAB4B",
"MX c #FFA54C",
"NX c #FFB444",
"BX c #FFB44B",
"VX c #FFBB44",
"CX c #FFA656",
"ZX c #FFB758",
"AX c #FFBB65",
"SX c #FFA968",
"DX c #FF9160",
"FX c #FFC747",
"GX c #FFD748",
"HX c #FFC652",
"JX c #FFD854",
"KX c #FFE948",
"LX c #FFE256",
"PX c #FFF048",
"IX c #FFCA6E",
"UX c #FFE56B",
/* pixels */
"y.K 3 ~ l / / N I.( I.U.Q.8.'.!.0.(.C.a.8.V j & j 6 j 6 y B $.f.t ;.yXsXFX+X=XPXPXGXwX>.d.i.i.^ R.:.Z.c.OXtXGXeX| e.x ~ l n K P.",
"K 1 n 3 c I u.I.I ^ t.x 3 P H c 8.a.a.a.f.3 R S.R j q d 5.#.Z %.&.` m.HXuXsXhXgXkX=X#X$XA.q.O.0.w.n.VXFXhXsXKXOX/.k.P.P z 4 3 V ",
"K K 3 V | CXO.$.N ^ i.Q.8.0.R.f.8.9.zXr V t , y Y A ].L r.W.@._.2Xn.C.| x.%XjXgXgX%XrXwX0Xv.-.' m.#XwXsX0XeXwXz.M.O.V.q.+.vXf.Z ",
"I.v ].o.5X5Xq.'.^ 0.0.l.O.a.c zX!.H H cXS e 2 Y b W L.E.:.w./.5XmX>.B.>.uX+XGXkX0X0X&X0XtX0XGXjXhX%X*X0X&XZ.,Xx.n.n.bX*.i xX(.@.",
"z 4.f.A.$X5X3X0.J l.d.a.l.C.0.O.W.l.a.J j.J V , t t }.IXZX5XZXZX=.nXiXVXFX+X+XkXOXv.eXOXjXlXlXkXkX=X&Xn.n.w. .` z.yXuX[ pX9XCXu ",
"U H.9.M.*.-X^.8.'.R.0.W.l.0.V.).2Xq.d.R.9.O.].2.K.D 4X] u x.>.-.B.vX` ,X&XtXhXrXeXeXv.tXjX=XPXPXKXLX$Xo.w.o.[.2XpXGXrX[ 0Xx.1X% ",
"J.4 2 3Xw.CXj.^ M K v j.W.a.C.n.m.;X@.0.W.q.Z y.Q.2.B t r.c #.I.P c H B.:XuX,XpX' <XrXrXtX[ c.#X$Xm.o.).0.9.B i *XGXtXGXsX6Xp 4.",
"e : ].g.p.%.Q K 3 n v o.C. .;X$X<Xx.A.A.;.2XB.r $.c H.v `.u.Q.G u.u.l l.:.M.n.Z.x.uX*X=X&X@Xz.yXm.$Xw.M.B B s 9XtXgXhX*XyX2Xr : ",
"Y w e c P K ! 2 2 t &.x.@XJXOXFXVXx...;.dX%X%X5XC.Z W z / ^ i.^ i.t.i.0.w.B.w.2X8Xm.v.rXpX-.' wXGXOXhXm.$X#XJXgX=XgXhXm.*.0 w w ",
") ; , Y z 4 W 0 r a 3XBX0XjX=XtXrX' m.7XyXeXqXHXxXV H V c c ^ t.0.Q.0.0.0.'.{. .;X:X<X6XiX] v.rXtXOXjX*XFXz.GXGX=XgX,X7.F , 0 R ",
"& y 0 y Y T &.B.SX[._.n.HXgX+XjXrXOX-.nXZ.-.NXNX,.!.a a ;.;.!.O.a.a.l.C.0.M !.L.B E.).M.BXm.&X0XGX*XhXhXZ.C.` x.tXGXZXu 0 f 0 ; ",
"> R Y & % a E.AXs.r %.B x.v.aXaXhX0XZ.:Xs.p Z.m.N.c [.).MXAX1Xk.0.0.1Xa.Q.u.4 b Z ~.w E.;X&Xv.FX%X0Xv.x.r D t zXHX#X9X9 > h D.Y ",
"U.J.b 0 ` 7X>X1Xt - J.e _.8X-X<X#X$X8Xx.W.<.| *.@.w O.d.V.p.s.g.G W.(. XQ z n + U.T.%.C.,.iX-X<X#X$X,.^.e ! 4 , xX8X=.>X9 w H.H.",
"V ~.p ` 8X9X;Xs t e ~ n 3.<.C.n.*.n.).d.t (.C.M.CX;.,.C a Z !.r D L p.c W w Y.t + + P.2 d.1X..x.n.B.V.$.z 3 ) E s *.9XZX7.X.y.z ",
"vXB.c.UXIX5 F R D.: : 4 T '.<.3X[.!.a $.C CXiXx.iXHXHXHXA.w., A W t `.p.| % r L.2 B #.q.t #.{.zX(. .2.b - : + ) 1.s ] IXUXNX..E.",
"u :XJXUX9X$ + f % < ) U n e B D C B c V g.,.5Xx.x.x.#X,XmX_.J., t t U.H zXIXs.%. .K.1XN.Z H t p s V ; R U 2 U > , y $ IXFXLX5X| ",
";.5X<XNX5 . ; R : T U : : w + : ; e J.4 c r nX5Xm.n.:X;.W.a.J V 5., S B MX8X5XZ.L.<.x.Z.O.v t r , 2 f - < U ) 2 Y + 6 5 HXHX9X*.",
"C.7X9XMX5 } 0 t Y.e R : = + ) = 3 .X3.#.a ;.M.M.M.d.1XZ G G P.I.J.2 E B | bXx.M.W.t iX$X| L.cXw < f + : = t e U.A d h @ ] z.ZX_.",
"t B.:Xb.& F.}.Z !.$.e ! 2 y f + n c 3.MXiX6X:.d.xXA.!.f.P N u.I.P.e z n t 0 5X;Xl.Z 9XdXZX+.D ! + < 4 2 4 t 3.T...| S.+ xXx.+.0.",
"4.~.*.IXd % 7.vXh.D P.! E 4 U U 3 v N.5XnXiXB v ).W.H 1 I H.^ l ^ K Q v K Z W.W.z p.8XyXbX).L 4 U f m U ! ].t  XCXcXq 9 xXb.%.L.",
"O 9 d u XX. $ } h.A ! J.n 3 + 3 1 v j.V.s  .2 y.R.H L y.z ! x x / v v H.P I.O.a.e.e #.r N.q.I n 3 = 3 N ~ 4.A T G.8   k & 1.S.+ ",
"$ # 9 } o X   u f - c v / E e 0 K f.G V.Q.v : y.9.P.V t , L.! W Q.r.L K $.e.r.r.G K z r.I.H t.3 : 4 E ! e.e 2 n R   X X g 9 6 6 ",
"9 * $ X 8 7 # F.y y b 1 N ^ W.N.@.4X0.!.l I./ ^ t.v v b ; S.w L.#.c o.$.e.2 3 3 P.( I.N 8.a.V.E.s T.P.N 1 b 2 : .XO 5 X 8 * 6 9 ",
") j g X X 5 j S.D.2 E ! G G C./.;X,.B.j./ I.t.I.!.P.K.w y 0 > > ~.{.vX3.y.y.L I.Q U.M M 8.@.;.7XIX[.z P.E ) 3 F.D.h 6 X   6 g F.",
"j .Xk @ 5 8 6 g y E m J.K.vXc 1XIXA.p.k.G u.H '.{.%.$. X0 + 0 Y S !.{.[.C 6.P.G / M U.G P.9.8XbXxXq.vX2.S U ) f f @ X X 7 k h ) ",
"6 * * 5 $ 7 k 6 < 1 Y.1 e 3.H g.Z.Z.o.f.c K e B c {.e.! y D.0 5.> '.6. .vXD P I.P.Q z I r.%.b.Z.E.o.%.y.3 E 4 q j @ F.7 X $ 7 & ",
"5 g $ $ $ 7 * 9 > f D.; 1.B a #.}.a 0 Y.A S Y.B  .D D.t 0 % 1.D zXX.s #.t 2.G y.3 4.].b e A p 6.&.6.h.T O .XR & # $ $ $ 8 $ . $ ",
"    k @ X @ 6 F.% y Y ; % h.s a L.0 d y + r A 5.5.J.t , 0 r h.| ` _.7.p 5.2 H.A H.t y % 1.R , Y.L.r C 2 r R y % G.h 6 7 # 7 $   ",
"8 . j F.. # f T 0 9 > C _.3X&.(.1.1.2 R > % w R ; Y R f d 9 >.nX=XaXNXi ).~.D 2 b 0 > 0 y 9 r A 7.<.2X3X0 0 r ; : F.7 O S.k O 8 ",
"$ @ h h $ O d t }.F &.6.:Xx.n. .C t F.; > & d 0 w 0 w w h.| 6X%XhXhXFXnX*.E.L.; r D.> > y Y., r h.B.>.Z._.X.| |.3.A O 6 f R * . ",
"$ 7 j & * # y {.u CX-.>X#X$X,.q.c b b 2 5.D e W S b D | <.>Xv.qXOXrXrX$X..(.N.%.w r  .J.e t ! B B :.-X#XZ.=.BX` L.S # 7 O j # . ",
"h * j .X7 @ R t CX7XZXZ.dX<X/.q.D B H '.~.K.j.H 3.w a <.` yXm.c.@XwXeXv.Z.+.^.%.Z {.K.I.`.P V c #.).-.,X#XZXnXCX#.5.# * F.* . F.",
"9 % 0 S.6 g 9 1.5.> r <.FXVX^.o.E.p | &.O.9.k.g.o.1Xb.-XdXwXyX&X#X$XuXwXM.CXvX;.B.w.9.$.8.H $.'.H ,.HXHX=.<.u | Y q g $ h d u q ",
"#.vX}.9 }.9 % > S : cXp yXyXC %.AXxXB.zXk.o.0.d.3X-.v.pXaX&Xn.:.n.Z.&XdXn. . ./.mX;XV.H W.q.#.cXI.B 9X<Xu {.DXd # * # XXq s L.D ",
"6.u ZX] i 1.q d  Xw B C C w.Z H (.B._.CXd.B p.+.ZXqXVXiXn.o.0.l.a.H B.xXq.C. .;XnXNX| 0.;Xd.9.k.V c 6.r t 0 6 i 6 6 h T.] ZX1X2X",
"h.4X9X8XC L.].O h.#.4X+.w.2X:.<.M._.X.xXE.p.f.E.-X&Xm.$Xd.0.^ ^ N N t.0.!.'.a.o.A.:X).d.A.A.C.l.f. Xv 2.y > . G.@ zX| s CXZXxX<.",
"3.&.6.CX<.4XL.3.t N.;XBX*...nXm.<Xx./.s.B S K Z *.VXyX_.9.x ^ / ^ / Q n I.z x P.k.V V G W.H 8.H c v / ! 2 h.q 6 }.*.zXB.7.6., #.",
"Q.L % 6.g.zX6.t 2.C :.$XnXx.-.NXVXBXC.%.B w W B C.xXM.).j./ 1 l ~ l ! l N u.u.v v z v 8.j.t.t.V z L x P n a b.xX7X<.xX&.o.r L f.",
"J H 6.b e.e.W I.! J.c C 6X-X,.:.<.@.CXB.K.2 A 1.L o.R.0.K Q 1 U 1 _ m U.Q e.l v H t 4Xd.O.a.t.G r.I.8.V 9.w.,XdXnX3Xo.$.t e y.$.",
"I.j.2 ].P x z e b z v p.iX>X+.$.r.h.[.B.~.6.w b `.M e./  XQ E U ) U ! n K v f.f.g.xXA.w.^.C.^.O.(.H f.B ).n.,X-.>Xb.P y. X#.Q.^ ",
"^ ^ {.'.z x l m 2 : 4 $.7X:XE.L.e t H f.g.3.B Y v n e.3 e.i./ D.1 y ) U 1 G {.M.,.m.<X6X>.C.:.:.9.W.@.C 5X$X$X|  .p.e v 2.SXx / ",
"/ ^ H V Q l J.Y.3 : ! f.n.,.0 J.= E V f./.xXB S H.H.e z e.P x  XY.U : 4 t s >.Z.#XVXVXVX:X;Xm.5X:.:._.7X-XA.d.zXf.V e Q B V M / ",
"l / U.z I e.U.x E H.$.Z x._., z - E +.3Xm.nX(.Q.j.u.H.n n Q ! ! 3 R z w ' JX*XGXOXhXhXv.s M.uX#X-X;.x.>X*.A.B D 1.> y.K z L Q E ",
"b ! H./ `.J P.K Q 2.N._.mX7XS D.J.V s.5XNX$Xd.H I.e.v 3 ~ m Q x #.% : D ZXdXhXjXtXhX0Xv.x.n.pX,Xn.;.ZXBXMXC I.S % % J.U.Q K b U ",
"f : W V i.f.e.2.V 6.MXbX>Xp E n x t.g.M.z.m.V.R.H j.U.x ! - E V B.AXCX#.s.s uXOX=XgXtX@X=.iX| M.7XB.*.:X;X^.9.y.& 9 B K.Q W 2 R ",
"0 0 K t.'.&.3.5.2 E.8Xv.zX9 : ) H.y.o.7XiX>X;.w.^.[.V 2 ! K w ~.Z.5X .w {.#.n.<XHXuX&X0XyX:XV.9.@.:.C.).B.1XZ r.1.D.C zXL H.w y ",
"H h.9.o.@.3.T , b 5. .b.7.# 0 f = E B mXFX0Xz.$X,X>.*.&.Q / - W F T.V K n 2.E.;X` nXyXm.8XC.H '.'.H C N.w. .R.t T T L.zXp.r.g.h.",
"^.o.o./.M.E.d = W 0 [.[.cXd q ; y 5.s b.sXhXFXpX$X5XZX:.4 n Y.4 w w m E 4 x 8.p.B...5XZ...w.9.$.z V L 3.N.s.zXy.; t 4XC A.+.k.W.",
"7XA.=.NXn._.C ; S 3.xX| 5.6 % % > B B.A.qXOXyX,.0 s.AX(.L K Y.n R z 3 J.K P.v R.,.ZXx.nXn.d.H ^ y.L.0 L.6.xXa Q w r <.x.<Xx.w.).",
"n.n.nXyXA.(.t 2 H.#.[.&.& > 9 % T {.;.Z.-XiX#X/.<. .B.C L 4 K P E : n x P.i.G J E./.>.6XA.9.{.G : z % % X.xXL.L.e K.+.:X6XNX,.).",
"C.:.+.B.2X+.D c Q y. XS w D.J.4.G Z $XFX=.>.z.HXIX=.C ~.G I j.G P.J I.r.8.M i.^ V c N.CX).q.8.v Y.e.Y., B I.K.c H.r.E.| Z...B {.",
"l.R.B 3.E.@.v z I.c S + ; R Y.z $.;.wXsXpXx.#XFXGXVXp B  .B...>X_.+.;.[.zXJ i.^ u.P H H C.(.J J /  X) = 2 S L.L K V o.cX3.2 r.!.",
"f.P.S v $.'.V 8.L 2.Y., 0 y D.e.E.8Xc.0XNXz.%XhXGX[ BXv.m.FXFXGXFX%XuXZXV I / ^ x / I I.V k.W.Q.P e w h , R K P.S I `.'.c : u.r.",
"H P.U.H.I G Q.$.~.&.R O > h B +.x.$XwXsXaX&XeXFXqXpXz.v.hXKXkXlXjXFXOX6XJ x l.I.I.G M v r. .A.;.<.D F 0 # D.5.S U.2.'.l U.4.Q M ",
"u.i.u.M x i.V &.b.i i O 0 F 7.x.qX0X[ 0XuXdX*.xX,.A.Z.c.gXkXlXoX%Xz.C.).8.8.!.'.^ t.t.@.n.` uXuX' 7.6.R % h f b b ! P.^ I.u.M i.",
"I N I.i.v 8. XE.AX] 9 & 5.6.nXuXkXtX%X&Xv.x.A.V B.C.| pXJXtXfXKX$XM.@.0.I.t.H W.j.R.v 4X5XHXgXkXwXBX'.d & 9 y n E 1 I.M i.N ^ I.",
"e.j.z e P.P.! 2.(.&.1.+ T T.yXGXPXPXLXeXZ.+.a.a.0.a.w.Z.-.qX=XJX8XM.Z !.M ^ ^ 0.^ ^ C.7X$XLXPXPXhXNXT.y.; ; e c : H.H.v G 3 I M ",
"K K Q Y.n e , e C }.y ].e N.#XFXjXjXgXyXn.W.I.v l.W.d.).A.m.v.FX>.+.E.zXi.G R.^ t.l.d.A.,X+XkXkXjXuX<.r D C &.P.I.y.%.#.G I.c Q ",
"n x - E - R ~ 3 D.L.e T S e  .M.pXv.%X,X:XW.0.0.l.0.C.b.>X;Xx.6X/.;.q.g.J Q.W.O.C.W.E.M.n.v.hX+X*X' | C =.Z.<Xv.s }.CXC.B v e.S ",
"J.z ~ b m 3 l _ z B S c n c V Z C._.7X;.C.%.!.R.V.C.E.xXx.m.>.2X5XM.E.B 9.k.@.2XN.x.| MX>.-.=XhXv.&XZ.6X0XhXFXFXm.MXMX..c m m m ",
"/ x l m ~ l U.~ ~ l / M v u.8.t.8.a.B g.B f.P y.U.V V &.B.2Xs _.nX8X:.d.zX .M.;.bX=.i 6Xm.&XHX@XuXx.%X=XjXjXGXHXBX7XE.V z 4 z ! ",
"H.l l ~ N _ ( P./ N ^ t.j.l.t.j.J r.R.G G c J.].Q 4.5.3.h.<.C W.7XZ._.B.;.A.>.yXqX' pX$XNXm.=.>.>.-XqXGXgXgXoXsXm.:.$.x l N N 3 ",
"Q 1 ~ l m _ N N ( ( ^ ^ t.J Q.J 0.f.W.G j.e w R y S.h R F '.B o.T.*.z.yX<XHXsXhXtX{ uXn./.@.a.J @.M.dXJXjXjXGXc.Z.I.x ! ~ 4 4 H.",
"P.z l ~ l l N ( i.( i.t.i.H l.k.(.0.W.8.f.V 0 q g 6 q 6 r F L L.t u yXVXhX=XfXKXKXKX%Xm.w.0.t.j.'.s 8X[ c.+XKX0X;.t.^ x 3 m J.! "
};
