/* XPM */
static char *_66dcc3d9cce421ebafa706cf0e5f1dcNXuA5ZDVlSQa0PyC[] = {
/* columns rows colors chars-per-pixel */
"64 64 255 2 ",
"   c #170E0E",
".  c #19140E",
"X  c #160E11",
"o  c #1C0E13",
"O  c #170F1C",
"+  c #1D0F1A",
"@  c #171317",
"#  c #1C1214",
"$  c #1C111B",
"%  c #2B140E",
"&  c #33130D",
"*  c #230E15",
"=  c #2B0E16",
"-  c #230E1B",
";  c #2A0E1B",
":  c #350E1B",
">  c #241215",
",  c #2B1315",
"<  c #271916",
"1  c #24131B",
"2  c #2B141B",
"3  c #2C191C",
"4  c #331414",
"5  c #3B1315",
"6  c #381B15",
"7  c #33141C",
"8  c #3B141C",
"9  c #341B1D",
"0  c #3C1A1C",
"q  c #2F2818",
"w  c #38221B",
"e  c #1F0E23",
"r  c #1C1223",
"t  c #191821",
"y  c #240E24",
"u  c #2A0E21",
"i  c #280E2B",
"p  c #3B0F27",
"a  c #241122",
"s  c #2B1322",
"d  c #281727",
"f  c #2B132B",
"g  c #331423",
"h  c #3A1423",
"j  c #351C22",
"k  c #3C1C24",
"l  c #34142B",
"z  c #3B132B",
"x  c #341B2B",
"c  c #3C1C2B",
"v  c #290F37",
"b  c #390F31",
"n  c #2C1334",
"m  c #361735",
"M  c #3B1433",
"N  c #2B2323",
"B  c #392427",
"V  c #36352E",
"C  c #3B2236",
"Z  c #4D0D0A",
"A  c #440E17",
"S  c #461719",
"D  c #441C1D",
"F  c #55191A",
"G  c #621A1A",
"H  c #731517",
"J  c #48261C",
"K  c #59261A",
"L  c #56301A",
"P  c #67251C",
"I  c #6F3519",
"U  c #430E29",
"Y  c #421524",
"T  c #441D24",
"R  c #4B1B24",
"E  c #491628",
"W  c #441D2B",
"Q  c #4B1B2B",
"!  c #581B26",
"~  c #541C2B",
"^  c #431D33",
"/  c #4B1C33",
"(  c #471A39",
")  c #551C37",
"_  c #641B25",
"`  c #771D2F",
"'  c #631A35",
"]  c #442224",
"[  c #4C2224",
"{  c #44222B",
"}  c #4C222B",
"|  c #4A2B29",
" . c #582827",
".. c #53242B",
"X. c #5B242C",
"o. c #533228",
"O. c #4C2333",
"+. c #492637",
"@. c #542433",
"#. c #5B2333",
"$. c #542A34",
"%. c #53223B",
"&. c #5D243A",
"*. c #5A2B38",
"=. c #573136",
"-. c #66282A",
";. c #752929",
":. c #68352A",
">. c #763628",
",. c #632433",
"<. c #672937",
"1. c #6B2B3A",
"2. c #752A3A",
"3. c #673535",
"4. c #64333A",
"5. c #6B333A",
"6. c #773739",
"7. c #695329",
"8. c #724832",
"9. c #311549",
"0. c #3D1C54",
"q. c #4A174B",
"w. c #571C44",
"e. c #671945",
"r. c #472542",
"t. c #592644",
"y. c #5B3646",
"u. c #562B53",
"i. c #672945",
"p. c #732C46",
"a. c #693646",
"s. c #773848",
"d. c #712B55",
"f. c #6A3655",
"g. c #773955",
"h. c #461661",
"j. c #74316D",
"k. c #784349",
"l. c #6F4F52",
"z. c #7A4656",
"x. c #665C51",
"c. c #734B67",
"v. c #853316",
"b. c #9B2528",
"n. c #893628",
"m. c #8D2D34",
"M. c #863A3B",
"N. c #AC5017",
"B. c #A8711E",
"V. c #9B5621",
"C. c #874739",
"Z. c #95463B",
"A. c #925230",
"S. c #A65737",
"D. c #AF5237",
"F. c #B36E33",
"G. c #D26E33",
"H. c #873847",
"J. c #963B45",
"K. c #902D50",
"L. c #863B55",
"P. c #A73C49",
"I. c #892B61",
"U. c #894747",
"Y. c #974847",
"T. c #8B544F",
"R. c #975748",
"E. c #894756",
"W. c #984957",
"Q. c #985657",
"!. c #A54A46",
"~. c #A75649",
"^. c #B85549",
"/. c #A64958",
"(. c #B74855",
"). c #A65756",
"_. c #B55B55",
"`. c #936550",
"'. c #B66749",
"]. c #AE6D52",
"[. c #BC6956",
"{. c #864A65",
"}. c #92516B",
"|. c #A75965",
" X c #AE516D",
".X c #936C6A",
"XX c #B86965",
"oX c #B87669",
"OX c #B26B73",
"+X c #CD5651",
"@X c #E45C41",
"#X c #C76748",
"$X c #CE754E",
"%X c #C76957",
"&X c #D77857",
"*X c #E4785B",
"=X c #CE5A66",
"-X c #C46668",
";X c #C67A67",
":X c #D67967",
">X c #CD6A73",
",X c #E2766B",
"<X c #B8862D",
"1X c #E7863A",
"2X c #ECAB39",
"3X c #B98955",
"4X c #AA985A",
"5X c #D48553",
"6X c #EB8F53",
"7X c #EA9556",
"8X c #EDAC53",
"9X c #D98967",
"0X c #D2936F",
"qX c #EA8D6F",
"wX c #E79A68",
"eX c #E69877",
"rX c #DAB679",
"tX c #EDAE6B",
"yX c #E9A579",
"uX c #F0C752",
"iX c #EDEB5D",
"pX c #EECB74",
"aX c #F2E875",
"sX c #B33382",
"dX c #93428B",
"fX c #B35487",
"gX c #A96F8F",
"hX c #C25D84",
"jX c #D0708B",
"kX c #D38F8C",
"lX c #D89686",
"zX c #E59489",
"xX c #D3B290",
"cX c #EEB38D",
"vX c #EEADAB",
"bX c #DDD191",
"nX c #F0D692",
"mX c #F6EC87",
"MX c #F5EA97",
"NX c #F1EC94",
"BX c #D7C5B8",
"VX c #EFD1AF",
"CX c #F5E7A4",
"ZX c #F6F4A5",
"AX c #F5E9B7",
"SX c #F0EFB6",
"DX c #F8B8C2",
"FX c #DECBCD",
"GX c #EBD9CD",
"HX c #F5F6C8",
"JX c #F3ECD3",
"KX c #EDDCE9",
"LX c #F1EAE8",
"PX c #F7F6E7",
"IX c #F5F7F3",
/* pixels */
"1 F h ( * u 0 s.< $.T.S.xXT U a.%.:.8.) B ^ ] 7 ) 4.c kXR.nXF.Y.*.^ g < H.Y.sXh ! pX=XJ *.1 f ~ A.cXc 0XgXfXt K.J.IX@.k Q m.E 7 ",
"a.tX../ u o 9 XXJ.cXK.U.w.uX=.h ..Y.-X8X} T b =Xz L C V B.NXnXHXG..XD 2.- m m.g.m.$Xi./ %.#X~ ! [.5.k A.9XY.I.2.KX<.) G.7 v e OX",
"d ! h { R ; s 8 ~ (.B 4 i Y 9.D.d Q Z. X! z R t.l.t ~.@.>.PX8XnXQ.i. .@ *.a dXN E.:.*.q.%.O.I ,.<.3 H v.pX}.|.a.u p ( o x 2 Q + ",
"W @ { R 6 _ W ..p./.yXC.-.B 0.s X.o = ( 3 g ..FX4 0.V.Q.U.W.kXeXs.~ ' g.D 2 2 wXm d >.h =.!.u.>.5.I ..wXR. .+.! D ~ 5.M.2 l y o ",
"y - i.FX>.8 g *.=.5XOX=.zXiX( m VX* o ; = > (.-.; 7 2 @ 6 }.,.< 1.z a y - v l h # 1 4Xk.,.{.d -.}.|.P ] 0 ! z B K.N 4.s.(.CXD.5 ",
"P a = [ K , ) / ! %Xw B.-.bXl nX] ..p u M p.l 2 = @ $ y 2 3 &.1 : > ; i 1 g 1 u U V ) wXPXVXx z.) J.] ] wX&X] 4 ^ 7 ).C.I v.).6.",
"F 7 M.@.e.{ , m #.{.PXZ.mX! D GX) W.4.j 1 @ ; - X < u O 0 g f = t.v 4 cX  > g ( $.-.uXPXE.L.[ ..4.].5X[ ZX8Xi.T 2 K o 0 9X4.  i.",
":.R.R.2.T H.H.O.7.Y.G.cXHXg.R B F : Y.K ..3 f s B a - o * d o a o o X # 9Xh l K +.8.T #X;..XGXz.D G.:.F.8XZX,.b H.E E -.qXp.J.,.",
"a.[.IX-X@.r %.~ K.C.<.&Xs.%.4.7 1 6 e.,.Q.Y } a.| & f * 1 s O o @ m = s ( C T k.k.DX4.:.8.VXaXl.d _.7XHXJX:.i. XD R ' ] ! @ t x ",
"1 j uXt.L &.w.1 @.*.i.3.x l : < s p.R -.5.) E Q m.[ ;.+ $ ~ E + r D 1 s n T a.>.6.t.] -Xf.z.i.$.a.O.).AXHXe.E 6.) U T u h lX< O ",
"$ $.U.H.fXoXM.2.W %.| a.h l [ o A a c c , 2 , s r + _ n * D ( yXE o o Y 8 , ..'.MX3XyXk.Q.PXk.z.M 0 Q 5.E a.J X.{ d %.cX/ { - - ",
"! 2.h ZXLX5XT C.FX*.+.U.../ + o O 1 e u #   $ + v 1 @ # h x ; ^ 6 $ b $ 3  X`.8.0X4X(.W.C.kX:.%.c f M #.M Q ).3 m X ^ { ] l = <.",
"M.W.aX0XT.}.Q.4 +.s.R $.<.` O - # 0 Q o o O * X o # # , 8 l ..4 = % = n ) ] 5X7X0XaX|.1.4XZ 7 y.w.F.W.z N +.Q j < @.W ^ B %.k.8.",
"M.y.Y.>.3.c.oXG.f.P.).d ; E 6.S B ; 1 o 4 e o ; # = 8 D 6.> > O   -.6.A +Xg.-.XX_.P +XC.wX].l.m w.W.C.J.{ , 1 Z.3 ` Q.$.%.m ).@X",
"[.].< IXBXuXtXx.i.-.s.c $ D 2.2.~ # s @ ) 1 m.2 3.f @ 2 yXfX7 s , p 5 7 d M.S.U.R.t.C G.HXg.lX>. .g.<.<.W m +.r 0 a.:.^ 1.| 5X0X",
"S.9X,.{.4.oX}.P #.;.&.] 2 ~.s.M 3 ; G 4 , $XG.~.+.aXu R b nX .0 *.0 y %.5 l * ,.U.W.(.T ~ g D ).5X0 O.C G.D.@.Q ] 1.s.0 .... XcX",
"HXGXY.L.T.LX..=.n k @.y # [ u z > ..X.4 S ;XmX&X6X,.w 4 = dX1.'.;X2.= *  .$.! ,.] ).E.M.J [ 4.l 9XtXz *.SX,X>.( 2.h O./.f b f.pX",
"nXbX).W.R.tXlX5.a.m 0 e d D 9 %  .1.eX>.X.~ 5XNX&XW ' u y H T g { $ T 4 1 R ( W.D.G.$Xw 7X, S 1.oXY.cXH.>.).AX .R a., k s ( [.cX",
"mXZX$.8.GXk.) a.g g.0 S 1 j.l ^.9 c ] k q 3XJXuXnX~ , 8 ; s $ # t.L.<. .Q  .c. .% G.~.~ 2.2.,.+XaXcXJX>.$.*.6.Y.t.p.s z , { v.SX",
"!.<.~.=X9XGXzXY 6.+.> > , T %.R 6.1 1 l 8 t A.PX7X!.6.$ o 0 s $ K./.i.8 g @.+.<.M.`.7 l f z -.v.~.`.P s.9XgX5.=XAXn.$.g 7 ).|.*X",
"|.J r.4.1.y.| m ..;Xy ' 4.y i a h = T = w 6XN.,XMXH.S.7 > 2 g j > + 2 8 b z Q }   2 f 0 2 u R.w.U.S.qX+XNXK.=X$X2XHXnXK 6.U.=.l.",
"S.W.}.*.,.^ <.x f S ) T /.6 3 1 w.4 =XA i.6 nXG X.t.9 K * , s = l : 2 > o $XL %Xm./ 8.= f R /.OX8 x  .D.IXLXI.B.7XZ 9X7X!.SX6.L.",
"l < 2.T B g Y 0 _ >.4 c 3X:.h s @.,.! 5.Y W P f.X.6._ h Q T ..t.h b.T >.T 6.C.6.5 R 2 x 9.s K.H.n.j l { A ^.PX7.K.R B 6Xb.iXY...",
"A.].a.2 $ b ~ H.! x d.F L.A 9 1 o > ; 1 g R 2 m.H.! Y M.:.T T T h F c.&X$.J @ U.nXS 0 ..7 E p.+.) 5.2 1 [ *.< C.! @.cX&X~.yXSX6.",
":.].,.4   i d ~ ( o X _ -X/ K >XI :.0 X :.C.T.[.$X .] ,XT |.R W.>.c l ' M.= 9 x Q 2XR.2.F O.s.T #X,.w 2 ; s 3 1 8X6 C = ^.;.Y.6.",
").cXtX*   > @ R o z 7 2 1.D.j B.9XX.-.1 '.%X%XG.v.B.,X'.,.2.T @.1 * u @ ~.W.1 2 , w yX5XrXW #.6.T.! T , F Q T v F L.z e.2 ) 3.Z.",
"<.R nXi.u O = * * A.S.s.:.R.6.}.S.mXC.vXcXeXcX[ -.Z.v.JXnXp.9 m #.n g ' B G.7 1 x -.8X+Xk b.XXR.B  .s.> ; [ cX=.$ w ! 2 2 2 l ] ",
"5 A L.F o   g * # 1 6X' GX'.1.w.AXtXnX^ j k.}.Y.h c < B w 7 4.} c c .X- a s f x z ~ R.MXF.s.6XG.|.*.7 i * # 1 + - B 4 7 y h u s ",
"A v.tX,.v 9.o n X 7 7 ^ $.f.$.OX&XM.-.a.<.#.W.e.T 8 7 c > 1 ,.|.B %.=.} a # 6 9 @.Z.>.7XzXV Q *.*.! # 3 y O C.$ 1 8 ; q.g g.).&.",
"1 T y.6.} O 1 i $ @ T 3 W /.d j.).Q.p.^ B p.g.I ;Xm.0 g 1 7 *.5.t.k W ] > $ 3 B *.jXlXoXZXk.G.|.S 1 v [ ~ w 0 ..+ ; + &X-.6.! 9 ",
"o n %.S -.U.n 1 B B ; 1 T O.K.A.8XY...[ %X+.W.).hXcX' ! l 9 :.p.p k s s 1 > e 1 T 3.=XVX/ n.3.,.} +., ~ M.} c u f a 1 y N 2 ! * ",
"= O 8 >.i.J.] o %XvXR 9 g 3 <.nXwXR.5.Q { s.A.cX%XMXT.-.D k d.s @.W i { <.> %.J.M.k.a.2.<.d.a.s.B 9 O.$.4.T i.@.g o X a   z |.@ ",
"Y d 8 z.F 2.<.) n M 0 f & R =.P / +.O.J K.a.U.6XnXmXvX3.m d.h l W 9 w.h.G D 2 T =.4.y.g.p.6 gX].| N Q *.s.k.$.c / @.O.2 9.d.2X=X",
"<.C h H.}.$XP p.k.] z O w y.3 p.( p.,.:.3.w...oX6.mXM.E.f.^ ) -.! ] M.:.> l { ) t.-Xb / , g j.P <.s < 2.c Q.m / S S.OXZ 6X6X0XD.",
"C C E &.qX$X[ m r.^ k f +.).z.t.< <.;.( p.vXK lX'.fX!.g.*.-.2  .R s Q.@ u o n =XV.^.V 5 T l.| ].K * 4 7 a m %.+.$XiXJ.3XL k.yX7.",
"{ :Xh b.tX<X{.~ 8Xs.n.#XC.o.T.5.a.6.( p.n * W.U.uXnX6XW.X.*.L.7 a . +.s.> 2 k 6 0 B 7.-.d m z _.6.s j 1 , } W ( $X#., L 8Xg.1XmX",
"T f.H.F zXJ 6.fXPX^.LX*XqX<.6 H.3.%.a.E c $.#X$XNXMX;.>X] W | < B g 5 2 y o g S.-.o / 3 8 [ fXPXS.~ X.7 :.d.8.t.} Q.$ +.`.JXV ;X",
"..U.;.:.3.).#XJX6XaX9XuX'.E.< ] h.c O.K.Q 3.,.( LXPXX.M. .y.C O l 1 s ] < g $ L 1Xk.JXR ~.R :.i.i.X.g a G l.) 8 +.v f d l.4 ;.:.",
" .k.f..Xp.K.IXG =X>XC.Z.p.y.k.W # 1 j X.] f p.^ H.l z q.M ] l @ 9.g 1 j ] ] %.> I :X{.~ eXD 7 1 s S AXF.bX=Xz ;.9X4 &.S.B c 3.^ ",
"NXSX}.P O.ZXPX2.p.{.!.,Xs.3.g.| c   r $ 1 A s.H.f - O i { V { 1 * D 3. .g 1.R.q l.;.PXPXz < k B X CXaX@ nX7X~.wXU.R } 3 a 2 8 c ",
"R a.*.x.8XlXH.i.a.|.H.VXk.T...Y $ @ * > , ; w 4.T # ( M.,./ ^ +.O.c ^.Q.Z.B W.#XSX2XtXaXZX6.E...3 :.-X+X5Xn._.mXY.6.-.(.5.: N + ",
"l ] 3.| 8X;XXXR MX6.aXzX/.L...^ x s 1 @ i v i f.;Xs 7 t.S.k.m.~.R.0 K t.m W y.d.aXs.Z.# 1X] O.> # D [ a.z.#X4 g f $ 7 5 x M.2 g ",
"c , B.IXpXcXpXH.AX:.yX'.Q._.9 R 0 f ; s a.i.r.}.^ { C { Y.GX@.l , ( 9.s.x *.$.} - 3 U 5X3 rX1 ..o o $X.X} @.8 1 D 1 h [.Z wX8 n ",
":.L 1 0XY.eXQ.-.s.}.rX! pXe.@.9 f u % o c 7X6.] } kX=.s.3. .r > 7 z W.5.%.V <.| - b X O N E.D > y.LXc.F.8Xy.x gXo : %.X.>X} k l ",
", g ..U.d.>.G.&.&.wX,.:XCXKXQ.fX1 * > < 7 2 $.3.B.~.6.{ i t.u 4 7 b.).4.F *.o g 0 / e c.[ { a O < k d 2 1.A 7X8.R./ 8 E ;.V z N ",
": s U.2 ! { ;.( `...cX|.vXtXW.t.6 * K W...j %.S.+.=.a.6.v q.0 0 ! o * R L...4.Q D.y.Y.E g l 5 1 @ k.g > o D C.%.>.@.{ ; 1 = k.i.",
", W 8 H.( x k b &X,.0XpXcXwX;./ r.| +.eXbXeXT [ T {.T l 1 m > @ :X;.-.p 5.g 5 & ; i.L 8.R * q.= T oX} L.$ 1 @.].4 M.XXC.. b m ( ",
"2 C , ; Q n c r.! ! E *XGXU.E.Y./ *.Y.p.*XzX=.h.} *.a.- s { s D 5 VXR ( g > o &.+.B 9 ] 2 ;.N.:X5.Y = O 1   x m > ~ l.< %.h <.y.",
"C.kX> a X 2 ^ z ! {  .xXOX,.9XhXwX@X9X;XJXMXG.g.-.B.AX2.b k.A ! [ U.s.a., *   * !  .u k , 2 , D >.J.<.2   7 ~ _.o / (  .<.| k J ",
"$.o y > o h ' E k %Xx FXo.q.U.W./.g.-XrXVXzXjX:.AXm.pXE.xX[.;X-X%.5 k h j A 5 f o 7 2 ; g o # A Q 4. .4 y < n M.W.9 +.~ A.K  .M ",
"O.T ! 7 9 > 7 l = ,.s.a.^ B 1.<.<.a.g.L.oXMX%XvXT.mXZX).q.A.AXpXM.$ 2 > @.d.H.S A $ * * g E z j 1 > 3 1 o - ! jX5XOX .! *XtX9XW ",
"' ..s.:.0 1 + > &.K W.2.C =.O.O.r.+.).MXAXKXw.O.tXGX9XY.f.f L._ M.[ # g H.(.&.= s k -.vX:.:.1 s ] D +.f x g ] R.CXJ.}._.mXH bXE ",
"q h 7 Y 1 h 2 , t.z U.p.4.C.4.5.+.-XVX|.#X%.l f.$XVXR.T.vXQ.U.k 2 s 4 j s s 0 5 s @ ! a @ 8 s e.z _ tXnXk.P ~ u.i.z.@.&Xw BX>X8.",
"Y.m a h 5 K R U.W.R vX<.Q a.U %.W.W.k.|.f.i.Q.4X1 `.M.nX5XBX[ o.> > 4 1 z j g > - J.7.c.k.) $ a % s.Q.H.CXOX1 2 x ~ K jXy.x._.$.",
"L.q.> m.D -X].} y W U.T g.~ ,.{.E h |.].C.tXXXwXkXE.a.8.Q.:X$.! %XT $.u.T m.e.BX^ *.b.R.w.E p * !.i.C :XwXd.-X+ 1 R l S.[ ~.F a ",
"2 _.;.A.Q ,.5 ] Y s p.W | { %.c R *X&X%XcXnXCXeXlXg.T.IXk.y.y , g T c h m E.lX~.$.w . `.9X2.= 7 JX/.wX0XU.Q h B R W.8 3.} 0XxX> ",
"> ) E ;.K 1 = R o s x g m z z k.Q k.g.W.W.7XpXpXP.}.R.CX X4.T * 7 t.R L.^ M u 2.J.* g z J & C.4 5.`.;X[.;.W & VXh 5 g &.t., - g ",
"7 X b 7 * u - x a 4 r Y }.M.t.xX8.eXQ.X.g.R.NXZXy.=.GX|.Q ,.}.< F B , @ $ 1 i h Y.M.= 6.s.%XB s 7 ~.F.Y.T 4 y V.U.1 p ^ M.R = # ",
">Xo 7 a R > M.> j @.l Y.$.lXOX3.$.$.^ =.' %XG.s./.N NXrXT.B R 2 5.lX+ a   + T xXbXG.1 a.R.q d 2 - s ~ ( s h r ZX8 9 @.T U oX) 6.",
", 1 7 n.R E.g o 2 z / W ,.* $.eX3.2 $.cX^.ZXeX5XGX: GXt.+.C f n l W f 2 O s h M - 2 M p.n.m.J 1 @ # *.@ g s p.pX' T v._.kXY.7 g ",
"i.BX^ Q KXy.:.r * l E { Q }.AX9Xm l @.&.W.6XPXVXGXSXm a.$.h z u.R s.U.vXR.L < = = f k $ 0 w w w s + o IX-XBX!.' , T #.H.p a.D.+X",
"%X6.J , 0 i.a X 1 X T p ( kXNXl l h :.$.[ VXZ.5XD B | >.kXT 9 6., [ >.Y.Z p Y.[ 3 O.; , , u 0 PX7 < 6.lXN +XMX+Xd.D 3 E ) y * P.",
"2 ) 2 n g b / O $ 5 @ 3 h J z m j H.u.qX2._.$.z W 6 l p.:.C.:.k.o l ~  XJ s.a.0 d g > R T / 5 7 S.} JX<.HXCXCXSX_.J.VXv X l e o ",
"u , @.jX; E y U.2 s | ;X .] T :.1 T ^ z ) R s.6 < d s eXJX| eX~.k g h v R s.d.1 7 D 6.5Xi.s.7 1 eX`.H T.}.>.`.>.yX&XM.h 8 ; O H."
};
