/* XPM */
static char *e135d3c0b0c6476cc6b895f0361508f9WqPwbecgvDUBOyyx[] = {
/* columns rows colors chars-per-pixel */
"64 64 118 2 ",
"   c #000000",
".  c #060608",
"X  c #09090B",
"o  c #0E0E12",
"O  c #0F1012",
"+  c #141217",
"@  c #121816",
"#  c #171A1D",
"$  c #1A1A1D",
"%  c #16271D",
"&  c #1F1E23",
"*  c #1D1E2A",
"=  c #201F25",
"-  c #241A33",
";  c #1F2025",
":  c #162029",
">  c #1F222B",
",  c #222127",
"<  c #212A27",
"1  c #23222A",
"2  c #2A252E",
"3  c #272A2F",
"4  c #252731",
"5  c #2A2633",
"6  c #272935",
"7  c #2A2A32",
"8  c #242738",
"9  c #27283A",
"0  c #2D2D3B",
"q  c #342834",
"w  c #322E3A",
"e  c #3C2B3D",
"r  c #363437",
"t  c #34313E",
"y  c #363A3E",
"u  c #393D3E",
"i  c #2A2F43",
"p  c #332944",
"a  c #322D4B",
"s  c #382D4F",
"d  c #2C3144",
"f  c #2F3448",
"g  c #343343",
"h  c #393342",
"j  c #323844",
"k  c #383B40",
"l  c #343449",
"z  c #3A364A",
"x  c #353A4F",
"c  c #3C394D",
"v  c #3B2553",
"b  c #3E2E52",
"n  c #353050",
"m  c #3E3B51",
"M  c #402D40",
"N  c #42394E",
"B  c #412C55",
"V  c #432D5B",
"C  c #423B52",
"Z  c #44335D",
"A  c #453E59",
"S  c #493F58",
"D  c #4A2F66",
"F  c #4A2E68",
"G  c #473362",
"H  c #4A3265",
"J  c #483964",
"K  c #3C4445",
"L  c #3D4946",
"P  c #3E454B",
"I  c #3B4154",
"U  c #414A47",
"Y  c #424649",
"T  c #454D4D",
"R  c #45514C",
"E  c #414155",
"W  c #464D52",
"Q  c #484D53",
"!  c #45425B",
"~  c #484059",
"^  c #444A5C",
"/  c #4A4C5F",
"(  c #4B5354",
")  c #4E5B56",
"_  c #515E57",
"`  c #515E59",
"'  c #4F6358",
"]  c #54655B",
"[  c #566A5E",
"{  c #4D4260",
"}  c #4A4D64",
"|  c #4C4C69",
" . c #504563",
".. c #4D5266",
"X. c #4C526A",
"o. c #4D536B",
"O. c #4C546B",
"+. c #4F536C",
"@. c #4D556C",
"#. c #4E546E",
"$. c #50526B",
"%. c #576D61",
"&. c #597060",
"*. c #5A7063",
"=. c #5A7262",
"-. c #597465",
";. c #4F937A",
":. c #5DA96B",
">. c #519E8C",
",. c #598F91",
"<. c #66B296",
"1. c #6AB19F",
"2. c #76D287",
"3. c #79C2AE",
"4. c #8AEB9C",
"5. c #88F29A",
"6. c #8CF69E",
"7. c #8DF79F",
/* pixels */
"                                                                                                                                ",
"                                                        o.                                                                      ",
"                                                      O.@.+.                                                                    ",
"                                                    $.@.$.@.o.                                                                  ",
"                                                  ..$.@.@.+.o.o.                                                                ",
"                                                I @.@.$...+.o.o.                                                                ",
"                                                $.@.o.. = ..O.O...                                                              ",
"                                              ..@.@.o 1 1 & 0 O.@.                                                              ",
"                                              ^ g g , = = , $ d } $.                                                            ",
"                                            T d = = , , , = , , d } +.                                                          ",
"                                          # d > = = , , , = , , & 4 +.O.                                                        ",
"                                        . j 0 ; = <.6.R , % 6.;.& & i O.                                                        ",
"                                        L j , = & : >.:.= 2.1.= & & , K ..                                                      ",
"                                      X 0 0 , = , e e 2 2 e e r 1 & = 2 d I                                                     ",
"                                    @ *.d 0 2 d e ,.5.4.2 r 7.3.2 0 = i [ *.&.                                                  ",
"                                  # -.*.z d i 0 e e e e 5 e e q q g p x ..%.-.[                                                 ",
"                                  *.-.A +.+.@.i d h h e M M M e C +.+.o.} x *.%.                                                ",
"                                  *.W A { ! @.+.@.m e M M M h +.O.@./ m Z c ] &                                                 ",
"                                  & $ 1 H ! S +.+.@.+.@.e +.@.@.m C C H z 7 & &                                                 ",
"                                  & , & 1 H H S ! +.@.@.| $.} m m A D D = = ; &                                                 ",
"                                  [ [ & & ; G H A A ! | +.$.@.o.C F - & & , s 9                                                 ",
"                                o %.6 0 , & > G H H A m A } @.O.n & & 4 z a ] ]                                                 ",
"                                  K 0 w g , & 1 G G G G c l l d d i f m i d W ] T                                               ",
"                                  & i d d | $.c m m d d d d d d f m Z i d l b & &                                               ",
"                                  & & = d d O.O.o.} C m m c C C m d d c V 6 = , 5                                               ",
"                                  [ T & ; 8 d O.O.o.| m S A A l f l z v & & 5 ^ T [ O                                           ",
"                                ` [ ( +.& & 1 d x +.@.$.} C C c l p 5 ; 4 } O.$.$.T [ T                                         ",
"                                [ [ +.+.+.& & 6 d f @.@.o.o.l g 6 5 4 / ..1 , @.@.@.T [ T                                       ",
"                            . [ %.W o.o.o.o.= , d d x O.o.o.o.o.4 g g m ; & & & 0 O.@.$.[ .                                     ",
"                            [ %.W o.o.o.o.o., 5 g 0 d d o.o.o.O.o.@.@.g ; & & & & & @.@.o.[                                     ",
"                          U ] T o.o.o.i i c = = g z z d d d o.O.o.o.o.o.} g & & = & 9 O.o...[                                   ",
"                          ] T W o.o.i i i i = = +.o.E z l d d g g d i i o.{ f 0 i i d 0 d d P W                                 ",
"                        K T Q ~ / i i i i i & & } o.o.o.z C C z g i i i S { { a i i i i i i i d W   .                           ",
"                        ` }  .& 0 i i i i i * & = o.o.o.+.C C C C g i i i { { { { i i i i i i i A z                             ",
"                      B ` & & > i i i i i i d & = o.o.o.o.o.C C C C a i i i i { { { i d i i i i i A                             ",
"                    4 Q 2 = & ; i i i i i i 6 & = * o.o.+.+.O.N C C N i i i i i { { { d i i i i i ( z                           ",
"                  K ~ ] & & & i i i i i i i & & & & o.o.o.o.o.o.C z N z i i i i d d ! { i d i i i i T g                         ",
"              k ) w T U & & ; i i i i i d i & ~ S S o.o.O.o.o.o.$.N N C l i d 5 d d d ~ { { i z i C T T R                       ",
"        + Y _ R g T _ & & & 0 i i i i i d & & ~ S ~ S o.o.o.o.o.$.+.z C g d d 6 5 5 & & & ~ d d h h c T ] ( 1                   ",
"        T T k t K _ T & & & i i i i i i & & & h ~ ~ ~ A o.o...o.O.+.o.l t d d d 6 5 & & & & d 0 0 t t T T R ] &                 ",
"        T k k Q R _ 7 , , , i i i i 8 ; ; & & t ~ ~ ~ ~ Z J $.O.O.o.o.o.t t d d 4 7 3 ; & & & d 7 0 r 0 T ] T ] K               ",
"      . T k T T ( T , , , , d i 0 : & & 3 & 5 w ~ ~ ~ S ~ S Z H o.o.o.o.O.p d d d 5 3 5 & & & ; d 7 0 0 w ] T T ] ]             ",
"        Y T T T _ 2 1 1 , t d 0 ; & & * 4 U K w C ~ ~ ~ ~ ~ N N H H | | +.+.t d f 7 7 3 & & & & d d 7 q q R ] T T ] ` X         ",
"      U R T T T h 3 3 h t t w ; & & & y Y T Y t w ~ ~ ~ S ~ N N N N N H G 1 & d d 0 5 7 5 U T 1 , d 0 7 0 w ] T T T ] ]         ",
"      T T T T w h h t e t q & & & ; y k T T T w 0 k ~ ~ ~ ~ ~ N N N N N h & & e d d 7 7 7 U T T U i 0 0 w 1 ) T T T T ] <       ",
"      T T w w h h t t h , & & & & 7 k k T T W w 0 t ~ ~ C ~ ~ A N N N N = = & & d d 7 7 4 5 T T T Y d d 7     . T R T T ]       ",
"            = p h h t , ; ; & & 4 k k Y T T T w 0 w t ~ ~ ~ ~ ~ C N N N i = = = d d d 7 7 3 R R T T U q +         + T T T T     ",
"            X t t , & & & & & ; k k k T T R R q q t 0 c ~ ~ ~ ~ C N N N i = = = ; d d 7 7 7 T T R T U                 . R Y     ",
"                $ , = & & & & 7 u k r T T T T 0 r 7 7 d ~ ~ ~ ~ C N N g d & & & & d d 0 7 5 T T T T .                     .     ",
"                  = & & & & & u k k T W T T w w P Y 5 d d ~ ~ ~ N N N f d d & & & & d d 7 5 W T T T                             ",
"                      . & , y u u T T T R T 0 q T R 7 3 d d ~ ~ N N C d d 4 & & & & d d 0 7 T T T K                             ",
"                          t k u u T T T T T w 0 T R 5 7 d d d ~ N C C d d 5 & , & & ; d r 7 T T T U                             ",
"                          5 u y T T T T Y w w 7 T T T 5 3 d d C N N d d d 3 3 3 3 & & t t 7 T R T                               ",
"                              0 T T R T h w w w T T R 5 5 d d d N N d d 5 3 2 5 2 & 6 h t q U T T                               ",
"                              Y U T Y t h w 7 7 T T T R 7 7 d d C l d d 3 5 3 3 3 3 t = & r 0 T U                               ",
"                                , , 0 0 e h & = & u T T 3 5 d d N g d d 2 = = 5 2 2 & = 0 $ T T                                 ",
"                                        1 1         R T 3 5 d d c i d d 2 & & 5 5 ,                                             ",
"                                                      R R 3 7 d d g d 5                                                         ",
"                                                        R r 7 d d i i 3                                                         ",
"                                                          0 3 7 i i 5                                                           ",
"                                                            0 7 5 5 &                                                           ",
"                                                              3 4                                                               ",
"                                                                $                                                               ",
"                                                                                                                                "
};
